<?xml version="1.0" encoding="UTF-8"?>
<!DOCTYPE svg PUBLIC "-//W3C//DTD SVG 1.1//EN" "http://www.w3.org/Graphics/SVG/1.1/DTD/svg11.dtd">
<svg xmlns="http://www.w3.org/2000/svg" version="1.1" width="100px" height="100px" style="shape-rendering:geometricPrecision; text-rendering:geometricPrecision; image-rendering:optimizeQuality; fill-rule:evenodd; clip-rule:evenodd" xmlns:xlink="http://www.w3.org/1999/xlink">
<g><path style="opacity:1" fill="#ffffff" d="M -0.5,-0.5 C 32.8333,-0.5 66.1667,-0.5 99.5,-0.5C 99.5,15.1667 99.5,30.8333 99.5,46.5C 99.1667,46.5 98.8333,46.5 98.5,46.5C 98.5,45.8333 98.5,45.1667 98.5,44.5C 98.2927,41.7594 97.2927,39.4261 95.5,37.5C 96.1098,36.609 96.4431,35.609 96.5,34.5C 98.4754,29.9385 97.1421,26.7719 92.5,25C 89.4748,24.6393 86.4748,24.1393 83.5,23.5C 80.1798,23.6382 78.5131,25.3049 78.5,28.5C 75.5697,30.2263 72.5697,32.0596 69.5,34C 66.2975,37.3709 62.9641,40.5375 59.5,43.5C 57.3792,43.6747 55.3792,43.3414 53.5,42.5C 52.7095,41.5987 51.7095,40.9321 50.5,40.5C 49.5592,38.9505 48.8925,37.2838 48.5,35.5C 48.5569,34.391 48.8902,33.391 49.5,32.5C 49.5,32.1667 49.5,31.8333 49.5,31.5C 51.5648,31.4828 53.5648,31.1495 55.5,30.5C 53.9141,34.2689 55.2474,36.2689 59.5,36.5C 62.89,36.3045 65.5567,34.8045 67.5,32C 64.0842,28.4854 60.0842,27.6521 55.5,29.5C 55.2969,27.9557 54.6302,26.6223 53.5,25.5C 57.5931,19.0468 56.9264,12.8801 51.5,7C 50.6683,6.31232 50.0016,6.47899 49.5,7.5C 48.1844,10.3837 47.1844,13.3837 46.5,16.5C 45.2638,17.2458 43.9305,17.5792 42.5,17.5C 42.2648,16.9033 41.7648,16.5699 41,16.5C 38.1838,17.23 35.3505,17.8966 32.5,18.5C 29.9646,16.0641 26.9646,14.3974 23.5,13.5C 23.1667,13.5 22.8333,13.5 22.5,13.5C 16.1323,11.806 10.6323,13.4727 6,18.5C 5.21086,20.7116 5.37753,22.7116 6.5,24.5C 7.14952,26.4352 7.48285,28.4352 7.5,30.5C 2.70617,35.8842 0.706174,42.2175 1.5,49.5C 0.833333,49.1667 0.166667,48.8333 -0.5,48.5C -0.5,32.1667 -0.5,15.8333 -0.5,-0.5 Z"/></g>
<g><path style="opacity:1" fill="#e8e5e8" d="M 22.5,13.5 C 20.2239,13.7565 19.0572,15.0898 19,17.5C 17.9543,14.5409 16.1209,13.8742 13.5,15.5C 7.8423,16.4129 6.50897,19.0795 9.5,23.5C 11.3911,24.5361 13.2245,24.5361 15,23.5C 16.049,25.1066 17.549,25.7733 19.5,25.5C 20.4916,25.6716 21.1583,25.3382 21.5,24.5C 24.2406,24.2927 26.5739,23.2927 28.5,21.5C 29.4467,18.3803 28.1133,16.3803 24.5,15.5C 24.1667,14.8333 23.8333,14.1667 23.5,13.5C 26.9646,14.3974 29.9646,16.0641 32.5,18.5C 35.3505,17.8966 38.1838,17.23 41,16.5C 41.7648,16.5699 42.2648,16.9033 42.5,17.5C 41.8333,17.8333 41.1667,18.1667 40.5,18.5C 39.391,18.5569 38.391,18.8902 37.5,19.5C 35.6282,21.6037 33.2948,22.937 30.5,23.5C 30.5654,23.0618 30.3988,22.7284 30,22.5C 28.5002,24.4687 26.6669,25.802 24.5,26.5C 22.8333,26.5 21.1667,26.5 19.5,26.5C 16.4816,26.6646 13.4816,26.498 10.5,26C 9.06919,25.5348 7.90252,24.7014 7,23.5C 6.60123,23.7284 6.43456,24.0618 6.5,24.5C 5.37753,22.7116 5.21086,20.7116 6,18.5C 10.6323,13.4727 16.1323,11.806 22.5,13.5 Z"/></g>
<g><path style="opacity:1" fill="#9eaad7" d="M 13.5,15.5 C 11.7155,17.9483 10.3822,20.615 9.5,23.5C 6.50897,19.0795 7.8423,16.4129 13.5,15.5 Z"/></g>
<g><path style="opacity:1" fill="#db575c" d="M 22.5,13.5 C 22.8333,13.5 23.1667,13.5 23.5,13.5C 23.8333,14.1667 24.1667,14.8333 24.5,15.5C 25.4151,17.7541 26.7484,19.7541 28.5,21.5C 26.5739,23.2927 24.2406,24.2927 21.5,24.5C 17.4475,18.9504 16.7808,19.2838 19.5,25.5C 17.549,25.7733 16.049,25.1066 15,23.5C 13.2245,24.5361 11.3911,24.5361 9.5,23.5C 10.3822,20.615 11.7155,17.9483 13.5,15.5C 16.1209,13.8742 17.9543,14.5409 19,17.5C 19.0572,15.0898 20.2239,13.7565 22.5,13.5 Z"/></g>
<g><path style="opacity:1" fill="#a1b0e1" d="M 24.5,15.5 C 28.1133,16.3803 29.4467,18.3803 28.5,21.5C 26.7484,19.7541 25.4151,17.7541 24.5,15.5 Z"/></g>
<g><path style="opacity:1" fill="#a56175" d="M 21.5,24.5 C 21.1583,25.3382 20.4916,25.6716 19.5,25.5C 16.7808,19.2838 17.4475,18.9504 21.5,24.5 Z"/></g>
<g><path style="opacity:1" fill="#de875c" d="M 40.5,18.5 C 40.5191,20.0603 40.8524,21.5603 41.5,23C 40.6443,24.5947 39.3109,25.428 37.5,25.5C 36.2652,25.7214 35.2652,26.3881 34.5,27.5C 33.5713,26.3112 33.238,24.9778 33.5,23.5C 36.5,23.8333 37.8333,22.5 37.5,19.5C 38.391,18.8902 39.391,18.5569 40.5,18.5 Z"/></g>
<g><path style="opacity:1" fill="#f8c88a" d="M 37.5,19.5 C 37.8333,22.5 36.5,23.8333 33.5,23.5C 33.238,24.9778 33.5713,26.3112 34.5,27.5C 35.2652,26.3881 36.2652,25.7214 37.5,25.5C 37.5,26.1667 37.5,26.8333 37.5,27.5C 39.4758,29.0109 41.8091,29.8442 44.5,30C 44.0426,30.414 43.7093,30.914 43.5,31.5C 45.396,32.4656 47.396,32.7989 49.5,32.5C 48.8902,33.391 48.5569,34.391 48.5,35.5C 45.5944,35.0435 42.9278,34.0435 40.5,32.5C 40.1667,32.5 39.8333,32.5 39.5,32.5C 36.2139,30.5488 33.2139,28.2154 30.5,25.5C 30.5,24.8333 30.5,24.1667 30.5,23.5C 33.2948,22.937 35.6282,21.6037 37.5,19.5 Z"/></g>
<g><path style="opacity:1" fill="#a0acd8" d="M 19.5,26.5 C 18.828,27.2674 17.9947,27.9341 17,28.5C 16.6667,30.5 16.3333,32.5 16,34.5C 14.005,32.253 11.505,31.253 8.5,31.5C 8.5,30.8333 8.16667,30.5 7.5,30.5C 7.48285,28.4352 7.14952,26.4352 6.5,24.5C 6.43456,24.0618 6.60123,23.7284 7,23.5C 7.90252,24.7014 9.06919,25.5348 10.5,26C 13.4816,26.498 16.4816,26.6646 19.5,26.5 Z"/></g>
<g><path style="opacity:1" fill="#a2a7d0" d="M 30.5,23.5 C 30.5,24.1667 30.5,24.8333 30.5,25.5C 28.8311,27.6618 26.8311,27.9952 24.5,26.5C 26.6669,25.802 28.5002,24.4687 30,22.5C 30.3988,22.7284 30.5654,23.0618 30.5,23.5 Z"/></g>
<g><path style="opacity:1" fill="#699872" d="M 55.5,29.5 C 55.5,29.8333 55.5,30.1667 55.5,30.5C 53.5648,31.1495 51.5648,31.4828 49.5,31.5C 47.744,30.4479 47.0773,28.7812 47.5,26.5C 44.2139,27.2071 40.8806,27.5405 37.5,27.5C 37.5,26.8333 37.5,26.1667 37.5,25.5C 39.3109,25.428 40.6443,24.5947 41.5,23C 40.8524,21.5603 40.5191,20.0603 40.5,18.5C 41.1667,18.1667 41.8333,17.8333 42.5,17.5C 43.9305,17.5792 45.2638,17.2458 46.5,16.5C 47.1844,13.3837 48.1844,10.3837 49.5,7.5C 50.0016,6.47899 50.6683,6.31232 51.5,7C 56.9264,12.8801 57.5931,19.0468 53.5,25.5C 54.6302,26.6223 55.2969,27.9557 55.5,29.5 Z"/></g>
<g><path style="opacity:1" fill="#da9f6b" d="M 49.5,31.5 C 49.5,31.8333 49.5,32.1667 49.5,32.5C 47.396,32.7989 45.396,32.4656 43.5,31.5C 43.7093,30.914 44.0426,30.414 44.5,30C 41.8091,29.8442 39.4758,29.0109 37.5,27.5C 40.8806,27.5405 44.2139,27.2071 47.5,26.5C 47.0773,28.7812 47.744,30.4479 49.5,31.5 Z"/></g>
<g><path style="opacity:1" fill="#fec75d" d="M 55.5,30.5 C 55.5,30.1667 55.5,29.8333 55.5,29.5C 60.0842,27.6521 64.0842,28.4854 67.5,32C 65.5567,34.8045 62.89,36.3045 59.5,36.5C 55.2474,36.2689 53.9141,34.2689 55.5,30.5 Z"/></g>
<g><path style="opacity:1" fill="#f27468" d="M 30.5,25.5 C 33.2139,28.2154 36.2139,30.5488 39.5,32.5C 36.7702,32.5266 34.2702,31.8599 32,30.5C 29.1764,31.0539 26.343,31.5539 23.5,32C 19.0206,34.8202 14.854,37.9868 11,41.5C 8.70405,40.372 6.87072,38.7054 5.5,36.5C 6.95244,35.0603 7.95244,33.3936 8.5,31.5C 11.505,31.253 14.005,32.253 16,34.5C 16.3333,32.5 16.6667,30.5 17,28.5C 17.9947,27.9341 18.828,27.2674 19.5,26.5C 21.1667,26.5 22.8333,26.5 24.5,26.5C 26.8311,27.9952 28.8311,27.6618 30.5,25.5 Z"/></g>
<g><path style="opacity:1" fill="#bc685d" d="M 40.5,32.5 C 42.9278,34.0435 45.5944,35.0435 48.5,35.5C 48.8925,37.2838 49.5592,38.9505 50.5,40.5C 47.9214,40.3939 45.588,41.0605 43.5,42.5C 44.1426,38.5669 43.1426,35.2336 40.5,32.5 Z"/></g>
<g><path style="opacity:1" fill="#fbcd86" d="M 96.5,34.5 C 92.6426,34.6897 90.976,36.6897 91.5,40.5C 91.5,40.8333 91.5,41.1667 91.5,41.5C 88.6874,47.2203 85.0208,47.887 80.5,43.5C 83.4526,39.375 86.6193,35.375 90,31.5C 90.6667,30.8333 90.6667,30.1667 90,29.5C 82.2476,40.421 72.7476,49.421 61.5,56.5C 57.1996,56.1847 55.533,53.8514 56.5,49.5C 56.8333,48.1667 57.1667,46.8333 57.5,45.5C 58.5,45.1667 59.1667,44.5 59.5,43.5C 62.9641,40.5375 66.2975,37.3709 69.5,34C 72.5697,32.0596 75.5697,30.2263 78.5,28.5C 78.5131,25.3049 80.1798,23.6382 83.5,23.5C 86.4748,24.1393 89.4748,24.6393 92.5,25C 97.1421,26.7719 98.4754,29.9385 96.5,34.5 Z"/></g>
<g><path style="opacity:1" fill="#b55c53" d="M 96.5,34.5 C 96.4431,35.609 96.1098,36.609 95.5,37.5C 94.8333,37.5 94.5,37.8333 94.5,38.5C 93.5,39.1667 92.5,39.8333 91.5,40.5C 90.976,36.6897 92.6426,34.6897 96.5,34.5 Z"/></g>
<g><path style="opacity:1" fill="#91a1b3" d="M 94.5,38.5 C 94.5,37.8333 94.8333,37.5 95.5,37.5C 97.2927,39.4261 98.2927,41.7594 98.5,44.5C 98.1667,44.5 97.8333,44.5 97.5,44.5C 96.4861,42.4261 95.4861,40.4261 94.5,38.5 Z"/></g>
<g><path style="opacity:1" fill="#faf8f7" d="M 7.5,30.5 C 8.16667,30.5 8.5,30.8333 8.5,31.5C 7.95244,33.3936 6.95244,35.0603 5.5,36.5C 6.87072,38.7054 8.70405,40.372 11,41.5C 14.854,37.9868 19.0206,34.8202 23.5,32C 26.343,31.5539 29.1764,31.0539 32,30.5C 34.2702,31.8599 36.7702,32.5266 39.5,32.5C 39.8333,32.5 40.1667,32.5 40.5,32.5C 43.1426,35.2336 44.1426,38.5669 43.5,42.5C 43.2011,44.604 43.5344,46.604 44.5,48.5C 45.4168,49.1272 46.4168,49.4606 47.5,49.5C 48.9621,50.4709 50.2954,50.1376 51.5,48.5C 53.3284,47.2055 55.3284,46.2055 57.5,45.5C 57.1667,46.8333 56.8333,48.1667 56.5,49.5C 55.5655,50.5676 55.2322,51.901 55.5,53.5C 53.8333,53.5 52.1667,53.5 50.5,53.5C 50.5,55.8333 50.5,58.1667 50.5,60.5C 46.8638,61.6758 43.8638,63.8424 41.5,67C 38.2084,67.0036 35.5418,68.1703 33.5,70.5C 29.4754,70.1839 25.4754,70.0172 21.5,70C 25.7268,71.2385 30.0602,72.0719 34.5,72.5C 35.7261,72.4805 36.7261,72.1471 37.5,71.5C 40.878,70.9769 43.878,69.6435 46.5,67.5C 46.5,68.1667 46.8333,68.5 47.5,68.5C 49.973,71.7366 53.3063,73.4033 57.5,73.5C 63.1546,72.8727 68.8213,72.3727 74.5,72C 78.0703,71.3889 80.737,69.5555 82.5,66.5C 84.8969,62.3501 85.5636,58.0167 84.5,53.5C 87.8784,54.1089 89.8784,52.7756 90.5,49.5C 91.2341,48.2921 91.5674,46.9587 91.5,45.5C 92.7362,43.351 93.7362,41.0177 94.5,38.5C 95.4861,40.4261 96.4861,42.4261 97.5,44.5C 97.8618,59.5782 90.8618,69.7448 76.5,75C 73.2799,76.3524 69.9466,77.1857 66.5,77.5C 55.502,78.7965 44.502,78.7965 33.5,77.5C 22.0337,75.7706 12.7003,70.4372 5.5,61.5C 3.60055,57.6983 2.26721,53.6983 1.5,49.5C 0.706174,42.2175 2.70617,35.8842 7.5,30.5 Z"/></g>
<g><path style="opacity:1" fill="#d27551" d="M 91.5,41.5 C 91.5,42.8333 91.5,44.1667 91.5,45.5C 91.5674,46.9587 91.2341,48.2921 90.5,49.5C 86.9436,51.9405 83.277,51.9405 79.5,49.5C 78.1667,49.1667 76.8333,48.8333 75.5,48.5C 76.8333,46.5 78.5,44.8333 80.5,43.5C 85.0208,47.887 88.6874,47.2203 91.5,41.5 Z"/></g>
<g><path style="opacity:1" fill="#91839e" d="M 53.5,42.5 C 55.3792,43.3414 57.3792,43.6747 59.5,43.5C 59.1667,44.5 58.5,45.1667 57.5,45.5C 55.3284,46.2055 53.3284,47.2055 51.5,48.5C 53.0808,46.8583 53.7475,44.8583 53.5,42.5 Z"/></g>
<g><path style="opacity:1" fill="#d95253" d="M 50.5,40.5 C 51.7095,40.9321 52.7095,41.5987 53.5,42.5C 53.7475,44.8583 53.0808,46.8583 51.5,48.5C 50.0413,48.4326 48.7079,48.7659 47.5,49.5C 46.4168,49.4606 45.4168,49.1272 44.5,48.5C 43.5344,46.604 43.2011,44.604 43.5,42.5C 45.588,41.0605 47.9214,40.3939 50.5,40.5 Z"/></g>
<g><path style="opacity:1" fill="#fcdbab" d="M 24.5,38.5 C 26.5,37.1667 28.5,37.1667 30.5,38.5C 26.5636,39.095 24.5636,41.095 24.5,44.5C 21.8603,42.3778 22.1937,40.5444 25.5,39C 25.2716,38.6012 24.9382,38.4346 24.5,38.5 Z"/></g>
<g><path style="opacity:1" fill="#685575" d="M 94.5,38.5 C 93.7362,41.0177 92.7362,43.351 91.5,45.5C 91.5,44.1667 91.5,42.8333 91.5,41.5C 91.5,41.1667 91.5,40.8333 91.5,40.5C 92.5,39.8333 93.5,39.1667 94.5,38.5 Z"/></g>
<g><path style="opacity:1" fill="#fec352" d="M 24.5,38.5 C 24.9382,38.4346 25.2716,38.6012 25.5,39C 22.1937,40.5444 21.8603,42.3778 24.5,44.5C 24.5636,41.095 26.5636,39.095 30.5,38.5C 31.6935,38.9704 32.3601,39.9704 32.5,41.5C 32.3333,42.5 32.1667,43.5 32,44.5C 28.8827,46.8207 25.3827,47.654 21.5,47C 19.7015,43.1421 20.7015,40.3088 24.5,38.5 Z"/></g>
<g><path style="opacity:1" fill="#82647d" d="M 51.5,48.5 C 50.2954,50.1376 48.9621,50.4709 47.5,49.5C 48.7079,48.7659 50.0413,48.4326 51.5,48.5 Z"/></g>
<g><path style="opacity:1" fill="#a35c58" d="M 80.5,43.5 C 78.5,44.8333 76.8333,46.5 75.5,48.5C 73.4752,50.1964 71.4752,51.863 69.5,53.5C 66.7573,55.2393 64.7573,57.5726 63.5,60.5C 63.1667,60.5 62.8333,60.5 62.5,60.5C 60.7367,61.9538 59.4033,61.6204 58.5,59.5C 59.5,59.5 60.5,59.5 61.5,59.5C 61.5,58.5 61.5,57.5 61.5,56.5C 72.7476,49.421 82.2476,40.421 90,29.5C 90.6667,30.1667 90.6667,30.8333 90,31.5C 86.6193,35.375 83.4526,39.375 80.5,43.5 Z"/></g>
<g><path style="opacity:1" fill="#fcf8f5" d="M 75.5,48.5 C 76.8333,48.8333 78.1667,49.1667 79.5,49.5C 79.8333,50.5 80.5,51.1667 81.5,51.5C 81.2471,53.8273 81.9137,55.8273 83.5,57.5C 81.5637,61.759 78.897,65.4257 75.5,68.5C 73.1667,67.8333 70.8333,67.1667 68.5,66.5C 66.5247,68.3206 64.1914,69.3206 61.5,69.5C 58.9278,68.8393 56.2611,68.6726 53.5,69C 51.6789,67.2567 49.6789,65.7567 47.5,64.5C 49.2882,63.7174 50.2882,62.3841 50.5,60.5C 51.1515,59.9094 51.8182,59.2427 52.5,58.5C 54.4086,59.3482 56.4086,59.6816 58.5,59.5C 59.4033,61.6204 60.7367,61.9538 62.5,60.5C 65.2606,62.94 68.2606,63.1066 71.5,61C 72.807,59.0565 72.807,57.2232 71.5,55.5C 70.8333,54.8333 70.1667,54.1667 69.5,53.5C 71.4752,51.863 73.4752,50.1964 75.5,48.5 Z"/></g>
<g><path style="opacity:1" fill="#836d80" d="M 79.5,49.5 C 83.277,51.9405 86.9436,51.9405 90.5,49.5C 89.8784,52.7756 87.8784,54.1089 84.5,53.5C 83.5,52.8333 82.5,52.1667 81.5,51.5C 80.5,51.1667 79.8333,50.5 79.5,49.5 Z"/></g>
<g><path style="opacity:1" fill="#a9ccd5" d="M -0.5,48.5 C 0.166667,48.8333 0.833333,49.1667 1.5,49.5C 2.26721,53.6983 3.60055,57.6983 5.5,61.5C 3.52594,59.572 2.02594,57.2387 1,54.5C 0.517215,55.448 0.350549,56.448 0.5,57.5C 0.166667,57.5 -0.166667,57.5 -0.5,57.5C -0.5,54.5 -0.5,51.5 -0.5,48.5 Z"/></g>
<g><path style="opacity:1" fill="#e8c4b3" d="M 9.5,53.5 C 12.263,54.5133 14.9297,54.5133 17.5,53.5C 14.9671,56.6367 13.8005,60.3033 14,64.5C 13.8214,61.4465 13.3214,58.4465 12.5,55.5C 11.4822,54.8075 10.4822,54.1408 9.5,53.5 Z"/></g>
<g><path style="opacity:1" fill="#f1a560" d="M 56.5,49.5 C 55.533,53.8514 57.1996,56.1847 61.5,56.5C 61.5,57.5 61.5,58.5 61.5,59.5C 60.5,59.5 59.5,59.5 58.5,59.5C 56.4086,59.6816 54.4086,59.3482 52.5,58.5C 51.8182,59.2427 51.1515,59.9094 50.5,60.5C 50.5,58.1667 50.5,55.8333 50.5,53.5C 52.1667,53.5 53.8333,53.5 55.5,53.5C 55.2322,51.901 55.5655,50.5676 56.5,49.5 Z"/></g>
<g><path style="opacity:1" fill="#e28e6a" d="M 69.5,53.5 C 70.1667,54.1667 70.8333,54.8333 71.5,55.5C 68.5251,56.6551 65.8584,58.3218 63.5,60.5C 64.7573,57.5726 66.7573,55.2393 69.5,53.5 Z"/></g>
<g><path style="opacity:1" fill="#ffffff" d="M 98.5,46.5 C 98.8333,46.5 99.1667,46.5 99.5,46.5C 99.5,64.1667 99.5,81.8333 99.5,99.5C 66.1667,99.5 32.8333,99.5 -0.5,99.5C -0.5,85.5 -0.5,71.5 -0.5,57.5C -0.166667,57.5 0.166667,57.5 0.5,57.5C 2.30179,66.2644 6.96846,73.0978 14.5,78C 34.0354,88.7284 54.3687,90.395 75.5,83C 91.9407,76.3873 99.6074,64.2207 98.5,46.5 Z"/></g>
<g><path style="opacity:1" fill="#fcdeb6" d="M 35.5,54.5 C 33.7446,55.0722 32.0779,55.9055 30.5,57C 29.8878,58.3033 29.5545,59.4699 29.5,60.5C 27.0698,58.9626 27.0698,57.296 29.5,55.5C 30.1342,54.0532 31.3009,53.3866 33,53.5C 34.0698,53.528 34.9032,53.8614 35.5,54.5 Z"/></g>
<g><path style="opacity:1" fill="#55557c" d="M 97.5,44.5 C 97.8333,44.5 98.1667,44.5 98.5,44.5C 98.5,45.1667 98.5,45.8333 98.5,46.5C 99.6074,64.2207 91.9407,76.3873 75.5,83C 54.3687,90.395 34.0354,88.7284 14.5,78C 6.96846,73.0978 2.30179,66.2644 0.5,57.5C 0.350549,56.448 0.517215,55.448 1,54.5C 2.02594,57.2387 3.52594,59.572 5.5,61.5C 12.7003,70.4372 22.0337,75.7706 33.5,77.5C 38.7483,79.0221 44.2483,79.6888 50,79.5C 55.7517,79.6888 61.2517,79.0221 66.5,77.5C 69.9466,77.1857 73.2799,76.3524 76.5,75C 90.8618,69.7448 97.8618,59.5782 97.5,44.5 Z"/></g>
<g><path style="opacity:1" fill="#fdbe53" d="M 71.5,55.5 C 72.807,57.2232 72.807,59.0565 71.5,61C 68.2606,63.1066 65.2606,62.94 62.5,60.5C 62.8333,60.5 63.1667,60.5 63.5,60.5C 65.8584,58.3218 68.5251,56.6551 71.5,55.5 Z"/></g>
<g><path style="opacity:1" fill="#fec155" d="M 35.5,54.5 C 40.7657,57.5753 40.7657,60.7419 35.5,64C 29.1723,65.9712 26.0057,63.8045 26,57.5C 26.8159,56.1772 27.9826,55.5106 29.5,55.5C 27.0698,57.296 27.0698,58.9626 29.5,60.5C 29.5545,59.4699 29.8878,58.3033 30.5,57C 32.0779,55.9055 33.7446,55.0722 35.5,54.5 Z"/></g>
<g><path style="opacity:1" fill="#e29158" d="M 81.5,51.5 C 82.5,52.1667 83.5,52.8333 84.5,53.5C 85.5636,58.0167 84.8969,62.3501 82.5,66.5C 80.1717,68.3004 77.505,69.467 74.5,70C 69.3365,70.533 64.1698,71.033 59,71.5C 54.8407,71.4891 51.0074,70.4891 47.5,68.5C 46.8333,68.5 46.5,68.1667 46.5,67.5C 46.44,66.9569 46.1067,66.6236 45.5,66.5C 41.8525,68.9954 37.8525,70.3288 33.5,70.5C 35.5418,68.1703 38.2084,67.0036 41.5,67C 43.8638,63.8424 46.8638,61.6758 50.5,60.5C 50.2882,62.3841 49.2882,63.7174 47.5,64.5C 49.6789,65.7567 51.6789,67.2567 53.5,69C 56.2611,68.6726 58.9278,68.8393 61.5,69.5C 64.1914,69.3206 66.5247,68.3206 68.5,66.5C 70.8333,67.1667 73.1667,67.8333 75.5,68.5C 78.897,65.4257 81.5637,61.759 83.5,57.5C 81.9137,55.8273 81.2471,53.8273 81.5,51.5 Z"/></g>
<g><path style="opacity:1" fill="#d2b4ad" d="M 33.5,70.5 C 34.5676,71.4345 35.901,71.7678 37.5,71.5C 36.7261,72.1471 35.7261,72.4805 34.5,72.5C 30.0602,72.0719 25.7268,71.2385 21.5,70C 25.4754,70.0172 29.4754,70.1839 33.5,70.5 Z"/></g>
<g><path style="opacity:1" fill="#635776" d="M 46.5,67.5 C 43.878,69.6435 40.878,70.9769 37.5,71.5C 35.901,71.7678 34.5676,71.4345 33.5,70.5C 37.8525,70.3288 41.8525,68.9954 45.5,66.5C 46.1067,66.6236 46.44,66.9569 46.5,67.5 Z"/></g>
<g><path style="opacity:1" fill="#bb745f" d="M 82.5,66.5 C 80.737,69.5555 78.0703,71.3889 74.5,72C 68.8213,72.3727 63.1546,72.8727 57.5,73.5C 53.3063,73.4033 49.973,71.7366 47.5,68.5C 51.0074,70.4891 54.8407,71.4891 59,71.5C 64.1698,71.033 69.3365,70.533 74.5,70C 77.505,69.467 80.1717,68.3004 82.5,66.5 Z"/></g>
<g><path style="opacity:1" fill="#a5d6e1" d="M 33.5,77.5 C 44.502,78.7965 55.502,78.7965 66.5,77.5C 61.2517,79.0221 55.7517,79.6888 50,79.5C 44.2483,79.6888 38.7483,79.0221 33.5,77.5 Z"/></g>
</svg>
