<?xml version="1.0" encoding="UTF-8"?>
<!DOCTYPE svg PUBLIC "-//W3C//DTD SVG 1.1//EN" "http://www.w3.org/Graphics/SVG/1.1/DTD/svg11.dtd">
<svg xmlns="http://www.w3.org/2000/svg" version="1.1" width="100px" height="100px" style="shape-rendering:geometricPrecision; text-rendering:geometricPrecision; image-rendering:optimizeQuality; fill-rule:evenodd; clip-rule:evenodd" xmlns:xlink="http://www.w3.org/1999/xlink">
<g><path style="opacity:1" fill="#fefefe" d="M -0.5,-0.5 C 32.8333,-0.5 66.1667,-0.5 99.5,-0.5C 99.5,32.8333 99.5,66.1667 99.5,99.5C 66.1667,99.5 32.8333,99.5 -0.5,99.5C -0.5,66.1667 -0.5,32.8333 -0.5,-0.5 Z"/></g>
<g><path style="opacity:1" fill="#e0d6d2" d="M 74.5,28.5 C 72.9991,29.7515 71.3325,30.7515 69.5,31.5C 68.713,29.8958 67.3797,29.2291 65.5,29.5C 62.4456,27.8256 59.1123,27.3256 55.5,28C 56.056,28.3826 56.3893,28.8826 56.5,29.5C 55.8826,29.6107 55.3826,29.944 55,30.5C 50.2682,26.9092 45.4348,26.9092 40.5,30.5C 39.0783,29.2232 38.0783,29.5565 37.5,31.5C 30.4475,27.5636 25.6142,29.2303 23,36.5C 21.3333,37.1667 19.6667,37.8333 18,38.5C 17.1402,41.6905 15.9735,44.6905 14.5,47.5C 13.5,47.5 12.5,47.5 11.5,47.5C 10.4824,44.6232 10.6491,41.6232 12,38.5C 15.0874,35.5839 17.9207,32.5839 20.5,29.5C 33.7057,22.6227 47.7057,20.7894 62.5,24C 66.8598,24.838 70.8598,26.338 74.5,28.5 Z"/></g>
<g><path style="opacity:1" fill="#4b6565" d="M 65.5,29.5 C 62.9028,29.7208 62.9028,30.2208 65.5,31C 64.552,31.4828 63.552,31.6495 62.5,31.5C 60.8583,29.9192 58.8583,29.2525 56.5,29.5C 56.3893,28.8826 56.056,28.3826 55.5,28C 59.1123,27.3256 62.4456,27.8256 65.5,29.5 Z"/></g>
<g><path style="opacity:1" fill="#79ad7a" d="M 37.5,31.5 C 37.5,32.5 37.5,33.5 37.5,34.5C 32.5588,36.4416 28.8922,39.7749 26.5,44.5C 23.7232,46.9505 21.7232,49.9505 20.5,53.5C 16.7429,53.3539 14.7429,51.3539 14.5,47.5C 15.9735,44.6905 17.1402,41.6905 18,38.5C 19.6667,37.8333 21.3333,37.1667 23,36.5C 25.6142,29.2303 30.4475,27.5636 37.5,31.5 Z"/></g>
<g><path style="opacity:1" fill="#899d7b" d="M 65.5,29.5 C 67.3797,29.2291 68.713,29.8958 69.5,31.5C 69.4431,32.609 69.1098,33.609 68.5,34.5C 67.1667,34.5 66.5,35.1667 66.5,36.5C 64.457,35.4206 63.1237,33.754 62.5,31.5C 63.552,31.6495 64.552,31.4828 65.5,31C 62.9028,30.2208 62.9028,29.7208 65.5,29.5 Z"/></g>
<g><path style="opacity:1" fill="#db645b" d="M 77.5,29.5 C 80.089,29.461 82.089,30.461 83.5,32.5C 83.5,34.5 83.5,36.5 83.5,38.5C 81.6852,34.5212 78.6852,31.6878 74.5,30C 75.448,29.5172 76.448,29.3505 77.5,29.5 Z"/></g>
<g><path style="opacity:1" fill="#f5ead5" d="M 56.5,29.5 C 58.8583,29.2525 60.8583,29.9192 62.5,31.5C 63.1237,33.754 64.457,35.4206 66.5,36.5C 66.8333,37.1667 67.1667,37.8333 67.5,38.5C 64.8127,38.3359 62.146,38.5026 59.5,39C 57.0646,40.7155 54.3979,41.8821 51.5,42.5C 52.3984,41.8423 53.3984,41.1757 54.5,40.5C 54.3764,39.8933 54.0431,39.56 53.5,39.5C 52.4549,38.1224 51.1216,37.1224 49.5,36.5C 47.5,36.5 45.5,36.5 43.5,36.5C 41.7179,35.2804 39.7179,34.6138 37.5,34.5C 37.5,33.5 37.5,32.5 37.5,31.5C 38.0783,29.5565 39.0783,29.2232 40.5,30.5C 45.4348,26.9092 50.2682,26.9092 55,30.5C 55.3826,29.944 55.8826,29.6107 56.5,29.5 Z"/></g>
<g><path style="opacity:1" fill="#dd9699" d="M 74.5,28.5 C 75.791,28.2627 76.791,28.596 77.5,29.5C 76.448,29.3505 75.448,29.5172 74.5,30C 78.6852,31.6878 81.6852,34.5212 83.5,38.5C 82.8333,39.5 82.1667,40.5 81.5,41.5C 80.1667,42.1667 78.8333,42.8333 77.5,43.5C 77.4333,40.5794 76.6,37.5794 75,34.5C 74.3741,36.9913 73.5407,36.9913 72.5,34.5C 71.8302,36.2914 71.1635,37.9581 70.5,39.5C 69.8333,37.8333 69.1667,36.1667 68.5,34.5C 69.1098,33.609 69.4431,32.609 69.5,31.5C 71.3325,30.7515 72.9991,29.7515 74.5,28.5 Z"/></g>
<g><path style="opacity:1" fill="#546b6a" d="M 68.5,34.5 C 69.1667,36.1667 69.8333,37.8333 70.5,39.5C 69.8333,39.5 69.1667,39.5 68.5,39.5C 67.8333,39.5 67.5,39.1667 67.5,38.5C 67.1667,37.8333 66.8333,37.1667 66.5,36.5C 66.5,35.1667 67.1667,34.5 68.5,34.5 Z"/></g>
<g><path style="opacity:1" fill="#a6b68f" d="M 77.5,43.5 C 77.1667,43.5 76.8333,43.5 76.5,43.5C 73.8145,42.1572 71.1478,40.8239 68.5,39.5C 69.1667,39.5 69.8333,39.5 70.5,39.5C 71.1635,37.9581 71.8302,36.2914 72.5,34.5C 73.5407,36.9913 74.3741,36.9913 75,34.5C 76.6,37.5794 77.4333,40.5794 77.5,43.5 Z"/></g>
<g><path style="opacity:1" fill="#efbb9b" d="M 37.5,34.5 C 39.7179,34.6138 41.7179,35.2804 43.5,36.5C 41.2314,37.9758 38.8981,39.4758 36.5,41C 39.366,42.4568 42.366,42.7901 45.5,42C 46.5832,39.9441 48.2499,38.6108 50.5,38C 49.944,37.6174 49.6107,37.1174 49.5,36.5C 51.1216,37.1224 52.4549,38.1224 53.5,39.5C 49.8527,39.6216 47.0194,41.2882 45,44.5C 42.2037,43.7887 39.3704,43.122 36.5,42.5C 35.4822,43.1925 34.4822,43.8592 33.5,44.5C 32.2502,44.5774 31.4169,45.244 31,46.5C 29.9288,43.8875 29.0955,43.8875 28.5,46.5C 27.8333,45.8333 27.1667,45.1667 26.5,44.5C 28.8922,39.7749 32.5588,36.4416 37.5,34.5 Z"/></g>
<g><path style="opacity:1" fill="#db8f6d" d="M 43.5,36.5 C 45.5,36.5 47.5,36.5 49.5,36.5C 49.6107,37.1174 49.944,37.6174 50.5,38C 48.2499,38.6108 46.5832,39.9441 45.5,42C 42.366,42.7901 39.366,42.4568 36.5,41C 38.8981,39.4758 41.2314,37.9758 43.5,36.5 Z"/></g>
<g><path style="opacity:1" fill="#fdf2d4" d="M 67.5,38.5 C 67.5,39.1667 67.8333,39.5 68.5,39.5C 71.1478,40.8239 73.8145,42.1572 76.5,43.5C 76.5,44.1667 76.5,44.8333 76.5,45.5C 76.6309,46.3764 76.2975,47.0431 75.5,47.5C 70.8869,43.8154 70.5536,44.3154 74.5,49C 73.1387,50.5843 72.472,52.4176 72.5,54.5C 70.6096,54.7035 69.1096,54.0368 68,52.5C 67.0814,55.4016 66.2481,55.7349 65.5,53.5C 65.5106,51.9826 66.1772,50.8159 67.5,50C 67.1667,49.6667 66.8333,49.3333 66.5,49C 67.448,48.5172 68.448,48.3505 69.5,48.5C 69.5,47.5 69.5,46.5 69.5,45.5C 67.3016,46.0144 65.3016,47.0144 63.5,48.5C 62.6143,49.325 62.281,50.325 62.5,51.5C 59.4816,51.3354 56.4816,51.502 53.5,52C 54.756,52.4169 55.4226,53.2502 55.5,54.5C 53.5509,53.2753 52.2175,53.942 51.5,56.5C 48.1578,54.6605 47.8245,52.4938 50.5,50C 48.563,49.8784 47.2297,49.045 46.5,47.5C 47.9663,46.653 48.7996,45.3197 49,43.5C 49.6708,42.7476 50.5041,42.4142 51.5,42.5C 54.3979,41.8821 57.0646,40.7155 59.5,39C 62.146,38.5026 64.8127,38.3359 67.5,38.5 Z"/></g>
<g><path style="opacity:1" fill="#4c6365" d="M 81.5,41.5 C 80.962,43.1172 80.6287,44.7839 80.5,46.5C 79.5,45.5 78.5,44.5 77.5,43.5C 78.8333,42.8333 80.1667,42.1667 81.5,41.5 Z"/></g>
<g><path style="opacity:1" fill="#d3c3c0" d="M 83.5,32.5 C 88.903,37.3757 90.903,43.3757 89.5,50.5C 88.1751,49.0474 87.3418,49.3808 87,51.5C 86.6667,50.8333 86.3333,50.1667 86,49.5C 85.5348,50.9308 84.7014,52.0975 83.5,53C 84.1667,53.3333 84.8333,53.6667 85.5,54C 84.5291,55.4813 83.1958,56.3146 81.5,56.5C 81.5,56.1667 81.5,55.8333 81.5,55.5C 82.9601,52.3728 82.6268,49.3728 80.5,46.5C 80.6287,44.7839 80.962,43.1172 81.5,41.5C 82.1667,40.5 82.8333,39.5 83.5,38.5C 83.5,36.5 83.5,34.5 83.5,32.5 Z"/></g>
<g><path style="opacity:1" fill="#df9572" d="M 53.5,39.5 C 54.0431,39.56 54.3764,39.8933 54.5,40.5C 53.3984,41.1757 52.3984,41.8423 51.5,42.5C 50.5041,42.4142 49.6708,42.7476 49,43.5C 48.7996,45.3197 47.9663,46.653 46.5,47.5C 45.4625,48.9303 44.7959,50.597 44.5,52.5C 42.5,53.8333 40.8333,55.5 39.5,57.5C 34.8988,60.1063 30.2321,60.1063 25.5,57.5C 25.0133,56.5266 24.5133,55.5266 24,54.5C 23.3457,55.6956 22.8457,55.6956 22.5,54.5C 23.8004,52.9488 25.4671,51.9488 27.5,51.5C 30.6883,51.3822 33.6883,50.5489 36.5,49C 34.6874,49.0464 33.0207,48.8797 31.5,48.5C 32.1799,47.1401 32.8466,45.8068 33.5,44.5C 34.4822,43.8592 35.4822,43.1925 36.5,42.5C 39.3704,43.122 42.2037,43.7887 45,44.5C 47.0194,41.2882 49.8527,39.6216 53.5,39.5 Z"/></g>
<g><path style="opacity:1" fill="#f9b486" d="M 76.5,43.5 C 76.8333,43.5 77.1667,43.5 77.5,43.5C 78.5,44.5 79.5,45.5 80.5,46.5C 82.6268,49.3728 82.9601,52.3728 81.5,55.5C 79.9277,52.2298 78.261,48.8965 76.5,45.5C 76.5,44.8333 76.5,44.1667 76.5,43.5 Z"/></g>
<g><path style="opacity:1" fill="#cf8361" d="M 26.5,44.5 C 27.1667,45.1667 27.8333,45.8333 28.5,46.5C 29.1408,47.4822 29.8075,48.4822 30.5,49.5C 29.3984,50.1757 28.3984,50.8423 27.5,51.5C 25.4671,51.9488 23.8004,52.9488 22.5,54.5C 22.8457,55.6956 23.3457,55.6956 24,54.5C 24.5133,55.5266 25.0133,56.5266 25.5,57.5C 24.5,57.5 23.5,57.5 22.5,57.5C 21.3995,56.3951 20.7329,55.0618 20.5,53.5C 21.7232,49.9505 23.7232,46.9505 26.5,44.5 Z"/></g>
<g><path style="opacity:1" fill="#f1cfb8" d="M 33.5,44.5 C 32.8466,45.8068 32.1799,47.1401 31.5,48.5C 33.0207,48.8797 34.6874,49.0464 36.5,49C 33.6883,50.5489 30.6883,51.3822 27.5,51.5C 28.3984,50.8423 29.3984,50.1757 30.5,49.5C 29.8075,48.4822 29.1408,47.4822 28.5,46.5C 29.0955,43.8875 29.9288,43.8875 31,46.5C 31.4169,45.244 32.2502,44.5774 33.5,44.5 Z"/></g>
<g><path style="opacity:1" fill="#c1bab1" d="M 11.5,47.5 C 12.5,47.5 13.5,47.5 14.5,47.5C 14.7429,51.3539 16.7429,53.3539 20.5,53.5C 20.7329,55.0618 21.3995,56.3951 22.5,57.5C 22.1667,57.5 21.8333,57.5 21.5,57.5C 16.5,55.8333 13.1667,52.5 11.5,47.5 Z"/></g>
<g><path style="opacity:1" fill="#fdeac9" d="M 76.5,45.5 C 78.261,48.8965 79.9277,52.2298 81.5,55.5C 81.5,55.8333 81.5,56.1667 81.5,56.5C 79.4832,57.5294 77.4832,58.5294 75.5,59.5C 74.9569,59.44 74.6236,59.1067 74.5,58.5C 78.4315,52.3197 77.5981,51.9864 72,57.5C 68.9849,56.1267 66.1515,56.46 63.5,58.5C 64.8034,60.5894 64.3034,62.2561 62,63.5C 59.978,63.7875 57.8113,63.4542 55.5,62.5C 52.9365,62.737 52.9365,63.237 55.5,64C 52.854,64.4974 50.1873,64.6641 47.5,64.5C 37.9767,64.9868 29.31,62.6535 21.5,57.5C 21.8333,57.5 22.1667,57.5 22.5,57.5C 23.5,57.5 24.5,57.5 25.5,57.5C 30.2321,60.1063 34.8988,60.1063 39.5,57.5C 42.2639,57.0012 43.9305,55.3345 44.5,52.5C 44.7959,50.597 45.4625,48.9303 46.5,47.5C 47.2297,49.045 48.563,49.8784 50.5,50C 47.8245,52.4938 48.1578,54.6605 51.5,56.5C 52.2175,53.942 53.5509,53.2753 55.5,54.5C 55.62,55.5862 56.2867,56.2528 57.5,56.5C 59.147,55.7224 60.4804,54.5557 61.5,53C 62.9285,52.4209 64.2618,52.5876 65.5,53.5C 66.2481,55.7349 67.0814,55.4016 68,52.5C 69.1096,54.0368 70.6096,54.7035 72.5,54.5C 72.472,52.4176 73.1387,50.5843 74.5,49C 70.5536,44.3154 70.8869,43.8154 75.5,47.5C 76.2975,47.0431 76.6309,46.3764 76.5,45.5 Z"/></g>
<g><path style="opacity:1" fill="#fece9f" d="M 65.5,53.5 C 64.2618,52.5876 62.9285,52.4209 61.5,53C 60.4804,54.5557 59.147,55.7224 57.5,56.5C 56.2867,56.2528 55.62,55.5862 55.5,54.5C 55.4226,53.2502 54.756,52.4169 53.5,52C 56.4816,51.502 59.4816,51.3354 62.5,51.5C 62.281,50.325 62.6143,49.325 63.5,48.5C 65.3016,47.0144 67.3016,46.0144 69.5,45.5C 69.5,46.5 69.5,47.5 69.5,48.5C 68.448,48.3505 67.448,48.5172 66.5,49C 66.8333,49.3333 67.1667,49.6667 67.5,50C 66.1772,50.8159 65.5106,51.9826 65.5,53.5 Z"/></g>
<g><path style="opacity:1" fill="#e8e8e7" d="M 20.5,29.5 C 17.9207,32.5839 15.0874,35.5839 12,38.5C 10.6491,41.6232 10.4824,44.6232 11.5,47.5C 13.1667,52.5 16.5,55.8333 21.5,57.5C 29.31,62.6535 37.9767,64.9868 47.5,64.5C 51.6344,65.4849 55.9677,65.8182 60.5,65.5C 59.6824,66.4091 58.0158,66.9091 55.5,67C 37.1934,70.8392 21.86,66.0059 9.5,52.5C 6.46632,41.5914 10.133,33.9248 20.5,29.5 Z"/></g>
<g><path style="opacity:1" fill="#dcd1d3" d="M 89.5,50.5 C 89.628,52.6547 89.128,54.6547 88,56.5C 82.7159,62.5345 76.5492,67.2011 69.5,70.5C 69.38,69.4138 68.7133,68.7472 67.5,68.5C 57.5691,70.6964 47.5691,71.0298 37.5,69.5C 36.5,69.6667 35.5,69.8333 34.5,70C 41.1153,71.1079 47.782,71.7746 54.5,72C 54.8333,72.3333 55.1667,72.6667 55.5,73C 50.9805,73.1753 46.6472,73.6753 42.5,74.5C 35.3263,73.4157 28.6596,70.9157 22.5,67C 18.7985,63.7245 14.9652,60.5578 11,57.5C 9.99136,55.9751 9.49136,54.3084 9.5,52.5C 21.86,66.0059 37.1934,70.8392 55.5,67C 58.0158,66.9091 59.6824,66.4091 60.5,65.5C 65.6482,63.8945 70.6482,61.8945 75.5,59.5C 77.4832,58.5294 79.4832,57.5294 81.5,56.5C 83.1958,56.3146 84.5291,55.4813 85.5,54C 84.8333,53.6667 84.1667,53.3333 83.5,53C 84.7014,52.0975 85.5348,50.9308 86,49.5C 86.3333,50.1667 86.6667,50.8333 87,51.5C 87.3418,49.3808 88.1751,49.0474 89.5,50.5 Z"/></g>
<g><path style="opacity:1" fill="#f9c293" d="M 75.5,59.5 C 70.6482,61.8945 65.6482,63.8945 60.5,65.5C 55.9677,65.8182 51.6344,65.4849 47.5,64.5C 50.1873,64.6641 52.854,64.4974 55.5,64C 52.9365,63.237 52.9365,62.737 55.5,62.5C 57.8113,63.4542 59.978,63.7875 62,63.5C 64.3034,62.2561 64.8034,60.5894 63.5,58.5C 66.1515,56.46 68.9849,56.1267 72,57.5C 77.5981,51.9864 78.4315,52.3197 74.5,58.5C 74.6236,59.1067 74.9569,59.44 75.5,59.5 Z"/></g>
<g><path style="opacity:1" fill="#a99a8f" d="M 44.5,52.5 C 43.9305,55.3345 42.2639,57.0012 39.5,57.5C 40.8333,55.5 42.5,53.8333 44.5,52.5 Z"/></g>
<g><path style="opacity:1" fill="#bdb4b5" d="M 69.5,70.5 C 60.859,73.9463 51.859,75.2796 42.5,74.5C 46.6472,73.6753 50.9805,73.1753 55.5,73C 55.1667,72.6667 54.8333,72.3333 54.5,72C 47.782,71.7746 41.1153,71.1079 34.5,70C 35.5,69.8333 36.5,69.6667 37.5,69.5C 47.5691,71.0298 57.5691,70.6964 67.5,68.5C 68.7133,68.7472 69.38,69.4138 69.5,70.5 Z"/></g>
</svg>
