<?xml version="1.0" encoding="UTF-8"?>
<!DOCTYPE svg PUBLIC "-//W3C//DTD SVG 1.1//EN" "http://www.w3.org/Graphics/SVG/1.1/DTD/svg11.dtd">
<svg xmlns="http://www.w3.org/2000/svg" version="1.1" width="100px" height="100px" style="shape-rendering:geometricPrecision; text-rendering:geometricPrecision; image-rendering:optimizeQuality; fill-rule:evenodd; clip-rule:evenodd" xmlns:xlink="http://www.w3.org/1999/xlink">
<g><path style="opacity:1" fill="#fdfdfc" d="M -0.5,-0.5 C 32.8333,-0.5 66.1667,-0.5 99.5,-0.5C 99.5,15.5 99.5,31.5 99.5,47.5C 98.3715,44.8146 97.0382,42.1479 95.5,39.5C 94.4231,38.2949 93.0898,37.6282 91.5,37.5C 92.3029,36.5768 92.4696,35.5768 92,34.5C 90.292,32.4565 88.292,30.7899 86,29.5C 85.7811,28.062 85.2811,26.7287 84.5,25.5C 80.4179,26.7114 76.4179,28.0448 72.5,29.5C 69.8001,30.1998 68.1334,31.8664 67.5,34.5C 67.5,33.8333 67.1667,33.5 66.5,33.5C 66.8342,30.812 66.1675,28.4786 64.5,26.5C 66.9201,26.2924 69.2534,26.6258 71.5,27.5C 73.3274,25.5128 74.3274,23.1795 74.5,20.5C 77.3116,12.4519 74.6449,7.45188 66.5,5.5C 57.6409,7.88995 55.3075,13.2233 59.5,21.5C 57.7354,22.4614 55.7354,22.7947 53.5,22.5C 54.4447,16.7644 53.1114,11.7644 49.5,7.5C 49.1892,2.84101 46.8559,1.50767 42.5,3.5C 41.5748,4.35686 40.9081,5.35686 40.5,6.5C 32.7563,6.07752 29.2563,9.74418 30,17.5C 29.3333,16.1667 28.6667,14.8333 28,13.5C 27.5357,14.0944 27.369,14.7611 27.5,15.5C 26.8333,15.1667 26.1667,14.8333 25.5,14.5C 27.8733,8.72548 25.8733,4.55882 19.5,2C 17.1667,1.33333 14.8333,1.33333 12.5,2C 14.6115,2.84468 16.6115,3.67802 18.5,4.5C 16.0971,4.44805 13.7638,4.78138 11.5,5.5C 11.1667,5.5 10.8333,5.5 10.5,5.5C 13.0452,4.54917 13.0452,3.54917 10.5,2.5C 4.77068,5.23121 3.10402,9.56454 5.5,15.5C 5.67158,16.4916 5.33825,17.1583 4.5,17.5C 4.53928,15.7761 4.20595,15.4427 3.5,16.5C 1.17054,24.0308 3.50387,29.8641 10.5,34C 12.1667,34.3333 13.8333,34.6667 15.5,35C 11.6875,36.3848 9.0208,38.8848 7.5,42.5C 6.5,42.8333 5.83333,43.5 5.5,44.5C 4.16667,45.1667 3.16667,46.1667 2.5,47.5C 1.58294,49.6618 1.58294,51.9952 2.5,54.5C 0.774843,54.8425 0.274843,55.8425 1,57.5C 3.31243,60.9795 6.14577,63.9795 9.5,66.5C 16.2416,86.5628 30.2416,97.2295 51.5,98.5C 60.79,98.7858 69.4567,96.6191 77.5,92C 82.4981,87.1406 87.8314,82.974 93.5,79.5C 93.3367,77.1432 93.5034,74.8098 94,72.5C 96.1718,71.4911 97.3385,69.8244 97.5,67.5C 97.8333,66.8333 98.1667,66.1667 98.5,65.5C 98.5,65.1667 98.5,64.8333 98.5,64.5C 98.8333,64.5 99.1667,64.5 99.5,64.5C 99.5,76.1667 99.5,87.8333 99.5,99.5C 66.1667,99.5 32.8333,99.5 -0.5,99.5C -0.5,66.1667 -0.5,32.8333 -0.5,-0.5 Z"/></g>
<g><path style="opacity:1" fill="#639351" d="M 49.5,7.5 C 47.5188,8.10541 47.1854,9.10541 48.5,10.5C 47.6618,10.8417 47.3284,11.5084 47.5,12.5C 46.8333,12.8333 46.1667,13.1667 45.5,13.5C 45.5,12.1667 44.8333,11.5 43.5,11.5C 45.3332,9.50434 45.8332,7.171 45,4.5C 44.7104,6.04406 44.0437,7.37739 43,8.5C 42.6667,7.83333 42.3333,7.16667 42,6.5C 42.256,8.60234 42.0893,10.6023 41.5,12.5C 39.8007,12.4729 38.4674,11.8062 37.5,10.5C 37.7706,8.56954 38.7706,7.23621 40.5,6.5C 40.9081,5.35686 41.5748,4.35686 42.5,3.5C 46.8559,1.50767 49.1892,2.84101 49.5,7.5 Z"/></g>
<g><path style="opacity:1" fill="#a59f7c" d="M 43.5,11.5 C 43.1583,12.3382 42.4916,12.6716 41.5,12.5C 42.0893,10.6023 42.256,8.60234 42,6.5C 42.3333,7.16667 42.6667,7.83333 43,8.5C 44.0437,7.37739 44.7104,6.04406 45,4.5C 45.8332,7.171 45.3332,9.50434 43.5,11.5 Z"/></g>
<g><path style="opacity:1" fill="#c9c6bf" d="M 25.5,14.5 C 25.1667,15.5 24.5,16.1667 23.5,16.5C 22.5,17.1667 21.5,17.8333 20.5,18.5C 18.9582,19.3007 17.2915,19.634 15.5,19.5C 11.4646,19.6698 8.13128,18.3365 5.5,15.5C 3.10402,9.56454 4.77068,5.23121 10.5,2.5C 13.0452,3.54917 13.0452,4.54917 10.5,5.5C 8.94929,7.91275 8.28262,10.5794 8.5,13.5C 9.5,13.5 10.5,13.5 11.5,13.5C 11.5,13.8333 11.5,14.1667 11.5,14.5C 11.3893,15.1174 11.056,15.6174 10.5,16C 15.2641,18.2472 19.4308,17.4138 23,13.5C 25.2281,8.62276 23.7281,5.62276 18.5,4.5C 16.6115,3.67802 14.6115,2.84468 12.5,2C 14.8333,1.33333 17.1667,1.33333 19.5,2C 25.8733,4.55882 27.8733,8.72548 25.5,14.5 Z"/></g>
<g><path style="opacity:1" fill="#f49749" d="M 15.5,8.5 C 16.1098,9.39105 16.4431,10.391 16.5,11.5C 15.1497,12.4831 14.1497,13.8164 13.5,15.5C 12.8165,15.1373 12.1499,14.8039 11.5,14.5C 11.5,14.1667 11.5,13.8333 11.5,13.5C 12.4839,11.5201 13.8173,9.85341 15.5,8.5 Z"/></g>
<g><path style="opacity:1" fill="#84a753" d="M 10.5,5.5 C 10.8333,5.5 11.1667,5.5 11.5,5.5C 12.5903,6.85706 13.9236,7.85706 15.5,8.5C 13.8173,9.85341 12.4839,11.5201 11.5,13.5C 10.5,13.5 9.5,13.5 8.5,13.5C 8.28262,10.5794 8.94929,7.91275 10.5,5.5 Z"/></g>
<g><path style="opacity:1" fill="#fbe9c9" d="M 18.5,4.5 C 23.7281,5.62276 25.2281,8.62276 23,13.5C 19.4308,17.4138 15.2641,18.2472 10.5,16C 11.056,15.6174 11.3893,15.1174 11.5,14.5C 12.1499,14.8039 12.8165,15.1373 13.5,15.5C 14.1497,13.8164 15.1497,12.4831 16.5,11.5C 16.4431,10.391 16.1098,9.39105 15.5,8.5C 13.9236,7.85706 12.5903,6.85706 11.5,5.5C 13.7638,4.78138 16.0971,4.44805 18.5,4.5 Z"/></g>
<g><path style="opacity:1" fill="#faa250" d="M 16.5,11.5 C 17.404,10.791 17.7373,9.79105 17.5,8.5C 18.5,8.5 19.5,8.5 20.5,8.5C 20.3568,11.0974 19.5234,13.4308 18,15.5C 16.8118,14.4366 16.3118,13.1033 16.5,11.5 Z"/></g>
<g><path style="opacity:1" fill="#f08060" d="M 74.5,20.5 C 69.7788,25.344 64.7788,25.6773 59.5,21.5C 55.3075,13.2233 57.6409,7.88995 66.5,5.5C 74.6449,7.45188 77.3116,12.4519 74.5,20.5 Z"/></g>
<g><path style="opacity:1" fill="#fdcb9a" d="M 64.5,10.5 C 65.1667,10.5 65.8333,10.5 66.5,10.5C 68.6194,8.91251 70.286,9.24585 71.5,11.5C 68.9875,13.4052 66.3208,13.7386 63.5,12.5C 63.8627,11.8165 64.1961,11.1499 64.5,10.5 Z"/></g>
<g><path style="opacity:1" fill="#86724a" d="M 66.5,10.5 C 65.8333,10.5 65.1667,10.5 64.5,10.5C 59.3518,10.2993 59.3518,9.63263 64.5,8.5C 66.9761,8.23259 67.6428,8.89925 66.5,10.5 Z"/></g>
<g><path style="opacity:1" fill="#d4cc9e" d="M 25.5,14.5 C 26.1667,14.8333 26.8333,15.1667 27.5,15.5C 27.756,17.9124 26.756,19.5791 24.5,20.5C 23.5713,19.3112 23.238,17.9778 23.5,16.5C 24.5,16.1667 25.1667,15.5 25.5,14.5 Z"/></g>
<g><path style="opacity:1" fill="#dddcdb" d="M 40.5,6.5 C 38.7706,7.23621 37.7706,8.56954 37.5,10.5C 34.0998,10.731 32.0998,12.5643 31.5,16C 35.4539,21.2062 40.4539,22.5396 46.5,20C 49.3355,18.5601 49.8355,16.7267 48,14.5C 47.3203,16.513 45.987,17.8464 44,18.5C 42.0786,17.8095 40.2453,17.4762 38.5,17.5C 40.8333,16.8333 43.1667,16.1667 45.5,15.5C 41.6893,14.2624 41.6893,13.5958 45.5,13.5C 46.1667,13.1667 46.8333,12.8333 47.5,12.5C 49.8262,13.6901 50.9928,15.6901 51,18.5C 51.9818,15.2253 51.1485,12.5586 48.5,10.5C 47.1854,9.10541 47.5188,8.10541 49.5,7.5C 53.1114,11.7644 54.4447,16.7644 53.5,22.5C 47.7717,22.0534 42.4383,23.0534 37.5,25.5C 34.5933,25.5752 31.9266,26.4086 29.5,28C 22.0135,32.6629 14.6802,37.4962 7.5,42.5C 9.0208,38.8848 11.6875,36.3848 15.5,35C 13.8333,34.6667 12.1667,34.3333 10.5,34C 3.50387,29.8641 1.17054,24.0308 3.5,16.5C 3.6829,22.6988 6.34957,27.5321 11.5,31C 14.8333,31.6667 18.1667,31.6667 21.5,31C 23.3959,29.1917 23.8959,27.025 23,24.5C 22.7645,22.8807 21.9311,21.8807 20.5,21.5C 20.5,20.5 20.5,19.5 20.5,18.5C 21.5,17.8333 22.5,17.1667 23.5,16.5C 23.238,17.9778 23.5713,19.3112 24.5,20.5C 26.756,19.5791 27.756,17.9124 27.5,15.5C 27.369,14.7611 27.5357,14.0944 28,13.5C 28.6667,14.8333 29.3333,16.1667 30,17.5C 29.2563,9.74418 32.7563,6.07752 40.5,6.5 Z"/></g>
<g><path style="opacity:1" fill="#fcaf82" d="M 37.5,10.5 C 38.4674,11.8062 39.8007,12.4729 41.5,12.5C 42.4916,12.6716 43.1583,12.3382 43.5,11.5C 44.8333,11.5 45.5,12.1667 45.5,13.5C 41.6893,13.5958 41.6893,14.2624 45.5,15.5C 43.1667,16.1667 40.8333,16.8333 38.5,17.5C 40.2453,17.4762 42.0786,17.8095 44,18.5C 45.987,17.8464 47.3203,16.513 48,14.5C 49.8355,16.7267 49.3355,18.5601 46.5,20C 40.4539,22.5396 35.4539,21.2062 31.5,16C 32.0998,12.5643 34.0998,10.731 37.5,10.5 Z"/></g>
<g><path style="opacity:1" fill="#faaf77" d="M 48.5,10.5 C 51.1485,12.5586 51.9818,15.2253 51,18.5C 50.9928,15.6901 49.8262,13.6901 47.5,12.5C 47.3284,11.5084 47.6618,10.8417 48.5,10.5 Z"/></g>
<g><path style="opacity:1" fill="#f9c8a9" d="M 5.5,15.5 C 8.13128,18.3365 11.4646,19.6698 15.5,19.5C 15.5,19.8333 15.5,20.1667 15.5,20.5C 12.715,19.9162 11.0483,20.9162 10.5,23.5C 7.5,22.5 5.5,20.5 4.5,17.5C 5.33825,17.1583 5.67158,16.4916 5.5,15.5 Z"/></g>
<g><path style="opacity:1" fill="#97ba7d" d="M 20.5,18.5 C 20.5,19.5 20.5,20.5 20.5,21.5C 19.1667,22.1667 17.8333,22.8333 16.5,23.5C 16.4431,22.391 16.1098,21.391 15.5,20.5C 15.5,20.1667 15.5,19.8333 15.5,19.5C 17.2915,19.634 18.9582,19.3007 20.5,18.5 Z"/></g>
<g><path style="opacity:1" fill="#ebc668" d="M 15.5,20.5 C 16.1098,21.391 16.4431,22.391 16.5,23.5C 14.3888,24.7416 12.3888,24.7416 10.5,23.5C 11.0483,20.9162 12.715,19.9162 15.5,20.5 Z"/></g>
<g><path style="opacity:1" fill="#f8f8f6" d="M 64.5,26.5 C 62.9755,27.1738 61.6422,28.1738 60.5,29.5C 59.8933,29.3764 59.56,29.0431 59.5,28.5C 59.6107,27.8826 59.944,27.3826 60.5,27C 59.2068,26.51 57.8734,26.3433 56.5,26.5C 56.7678,28.099 56.4345,29.4324 55.5,30.5C 53.5648,29.8505 51.5648,29.5172 49.5,29.5C 49.5,30.8333 49.5,32.1667 49.5,33.5C 48.1667,33.5 46.8333,33.5 45.5,33.5C 45.7678,31.901 45.4345,30.5676 44.5,29.5C 43.205,28.5116 41.8717,27.5116 40.5,26.5C 48.5,23.8333 56.5,23.8333 64.5,26.5 Z"/></g>
<g><path style="opacity:1" fill="#c0bdbf" d="M 74.5,20.5 C 74.3274,23.1795 73.3274,25.5128 71.5,27.5C 69.2534,26.6258 66.9201,26.2924 64.5,26.5C 56.5,23.8333 48.5,23.8333 40.5,26.5C 39.609,25.8902 38.609,25.5569 37.5,25.5C 42.4383,23.0534 47.7717,22.0534 53.5,22.5C 55.7354,22.7947 57.7354,22.4614 59.5,21.5C 64.7788,25.6773 69.7788,25.344 74.5,20.5 Z"/></g>
<g><path style="opacity:1" fill="#fae1b3" d="M 37.5,25.5 C 38.609,25.5569 39.609,25.8902 40.5,26.5C 41.8717,27.5116 43.205,28.5116 44.5,29.5C 43.6906,30.4687 42.6906,31.3021 41.5,32C 32.894,33.4765 25.5606,37.3099 19.5,43.5C 18.914,43.2907 18.414,42.9574 18,42.5C 14.9301,44.4474 12.4301,46.9474 10.5,50C 5.10134,51.437 3.43468,49.6036 5.5,44.5C 5.83333,43.5 6.5,42.8333 7.5,42.5C 14.6802,37.4962 22.0135,32.6629 29.5,28C 31.9266,26.4086 34.5933,25.5752 37.5,25.5 Z"/></g>
<g><path style="opacity:1" fill="#f2c6d2" d="M 4.5,17.5 C 5.5,20.5 7.5,22.5 10.5,23.5C 12.3888,24.7416 14.3888,24.7416 16.5,23.5C 17.8333,22.8333 19.1667,22.1667 20.5,21.5C 21.9311,21.8807 22.7645,22.8807 23,24.5C 23.8959,27.025 23.3959,29.1917 21.5,31C 18.1667,31.6667 14.8333,31.6667 11.5,31C 6.34957,27.5321 3.6829,22.6988 3.5,16.5C 4.20595,15.4427 4.53928,15.7761 4.5,17.5 Z"/></g>
<g><path style="opacity:1" fill="#98c366" d="M 59.5,28.5 C 57.9597,30.7291 56.4597,33.0625 55,35.5C 53.198,33.7271 53.3647,32.0605 55.5,30.5C 56.4345,29.4324 56.7678,28.099 56.5,26.5C 57.8734,26.3433 59.2068,26.51 60.5,27C 59.944,27.3826 59.6107,27.8826 59.5,28.5 Z"/></g>
<g><path style="opacity:1" fill="#e0dfbc" d="M 64.5,26.5 C 66.1675,28.4786 66.8342,30.812 66.5,33.5C 65.2101,32.9423 64.3768,31.9423 64,30.5C 63.2411,32.6349 61.7411,33.9682 59.5,34.5C 58.4104,35.3914 58.4104,36.3914 59.5,37.5C 56.6619,38.5123 55.3286,40.5123 55.5,43.5C 55.5,43.8333 55.5,44.1667 55.5,44.5C 53.6208,45.3414 51.6208,45.6747 49.5,45.5C 51.3699,44.0594 53.0366,42.3927 54.5,40.5C 54.0328,38.4317 53.3661,36.4317 52.5,34.5C 51.675,33.6143 50.675,33.281 49.5,33.5C 49.5,32.1667 49.5,30.8333 49.5,29.5C 51.5648,29.5172 53.5648,29.8505 55.5,30.5C 53.3647,32.0605 53.198,33.7271 55,35.5C 56.4597,33.0625 57.9597,30.7291 59.5,28.5C 59.56,29.0431 59.8933,29.3764 60.5,29.5C 61.6422,28.1738 62.9755,27.1738 64.5,26.5 Z"/></g>
<g><path style="opacity:1" fill="#92b169" d="M 45.5,33.5 C 46.8333,33.5 48.1667,33.5 49.5,33.5C 50.675,33.281 51.675,33.6143 52.5,34.5C 53.3661,36.4317 54.0328,38.4317 54.5,40.5C 53.0366,42.3927 51.3699,44.0594 49.5,45.5C 48.6618,45.1583 48.3284,44.4916 48.5,43.5C 48.8333,42.8333 49.1667,42.1667 49.5,41.5C 49.4603,36.9865 47.7937,35.9865 44.5,38.5C 45.2458,39.7362 45.5792,41.0695 45.5,42.5C 45.5,43.1667 45.1667,43.5 44.5,43.5C 42.5328,43.7394 40.6995,43.4061 39,42.5C 38.935,44.8833 38.1017,45.55 36.5,44.5C 35.0986,45.5207 33.7653,46.5207 32.5,47.5C 31.5,47.5 30.5,47.5 29.5,47.5C 33.9197,43.7774 38.5863,40.2774 43.5,37C 44.8228,36.1841 45.4894,35.0174 45.5,33.5 Z"/></g>
<g><path style="opacity:1" fill="#efab60" d="M 44.5,29.5 C 45.4345,30.5676 45.7678,31.901 45.5,33.5C 45.4894,35.0174 44.8228,36.1841 43.5,37C 38.5863,40.2774 33.9197,43.7774 29.5,47.5C 27.7392,48.3127 26.0725,49.3127 24.5,50.5C 19.6188,52.7752 15.9521,55.7752 13.5,59.5C 17.8787,56.644 22.5453,54.3107 27.5,52.5C 27.5,52.8333 27.5,53.1667 27.5,53.5C 25.7376,54.2623 24.7376,55.5956 24.5,57.5C 20.2353,58.9336 15.902,60.1003 11.5,61C 7.72791,59.6107 7.72791,58.6107 11.5,58C 9.33333,54.5 6.5,51.6667 3,49.5C 2.53566,48.9056 2.36899,48.2389 2.5,47.5C 3.16667,46.1667 4.16667,45.1667 5.5,44.5C 3.43468,49.6036 5.10134,51.437 10.5,50C 12.4301,46.9474 14.9301,44.4474 18,42.5C 18.414,42.9574 18.914,43.2907 19.5,43.5C 25.5606,37.3099 32.894,33.4765 41.5,32C 42.6906,31.3021 43.6906,30.4687 44.5,29.5 Z"/></g>
<g><path style="opacity:1" fill="#dfa760" d="M 49.5,41.5 C 48.7784,41.0825 48.2784,40.4158 48,39.5C 47.1482,40.5707 46.3149,41.5707 45.5,42.5C 45.5792,41.0695 45.2458,39.7362 44.5,38.5C 47.7937,35.9865 49.4603,36.9865 49.5,41.5 Z"/></g>
<g><path style="opacity:1" fill="#96bf68" d="M 66.5,33.5 C 67.1667,33.5 67.5,33.8333 67.5,34.5C 65.5,34.5 63.5,34.5 61.5,34.5C 61.8333,36.5 62.1667,38.5 62.5,40.5C 60.3206,41.6772 57.9872,42.6772 55.5,43.5C 55.3286,40.5123 56.6619,38.5123 59.5,37.5C 58.4104,36.3914 58.4104,35.3914 59.5,34.5C 61.7411,33.9682 63.2411,32.6349 64,30.5C 64.3768,31.9423 65.2101,32.9423 66.5,33.5 Z"/></g>
<g><path style="opacity:1" fill="#f8f5e5" d="M 91.5,37.5 C 92.9521,43.942 90.4521,47.6086 84,48.5C 81.3569,47.6793 79.0236,46.346 77,44.5C 76.3571,42.0698 74.8571,40.4032 72.5,39.5C 73.5896,38.3914 73.5896,37.3914 72.5,36.5C 71.0562,38.6079 70.3896,40.9412 70.5,43.5C 69.3591,40.6044 69.1925,36.9378 70,32.5C 71.045,31.6266 71.8783,30.6266 72.5,29.5C 76.4179,28.0448 80.4179,26.7114 84.5,25.5C 85.2811,26.7287 85.7811,28.062 86,29.5C 88.292,30.7899 90.292,32.4565 92,34.5C 92.4696,35.5768 92.3029,36.5768 91.5,37.5 Z"/></g>
<g><path style="opacity:1" fill="#dbdfaa" d="M 74.5,30.5 C 79.0982,30.2731 83.4316,31.1064 87.5,33C 84.62,33.6841 81.7866,33.5174 79,32.5C 77.4329,33.8561 75.5996,34.5228 73.5,34.5C 73.4326,33.0413 73.7659,31.7079 74.5,30.5 Z"/></g>
<g><path style="opacity:1" fill="#7a966b" d="M 62.5,40.5 C 63.3764,40.3691 64.0431,40.7025 64.5,41.5C 63.3504,44.3205 62.1838,44.6538 61,42.5C 60.0812,44.2393 58.9145,44.906 57.5,44.5C 56.8333,44.5 56.1667,44.5 55.5,44.5C 55.5,44.1667 55.5,43.8333 55.5,43.5C 57.9872,42.6772 60.3206,41.6772 62.5,40.5 Z"/></g>
<g><path style="opacity:1" fill="#e1dcb4" d="M 67.5,34.5 C 68.8115,37.4155 68.1448,39.9155 65.5,42C 68.022,43.6859 67.6887,45.0192 64.5,46C 65.056,46.3826 65.3893,46.8826 65.5,47.5C 63.9139,46.5868 62.4139,46.5868 61,47.5C 60.015,46.1859 58.8484,45.1859 57.5,44.5C 58.9145,44.906 60.0812,44.2393 61,42.5C 62.1838,44.6538 63.3504,44.3205 64.5,41.5C 64.0431,40.7025 63.3764,40.3691 62.5,40.5C 62.1667,38.5 61.8333,36.5 61.5,34.5C 63.5,34.5 65.5,34.5 67.5,34.5 Z"/></g>
<g><path style="opacity:1" fill="#fcefd9" d="M 48.5,43.5 C 48.3284,44.4916 48.6618,45.1583 49.5,45.5C 51.6208,45.6747 53.6208,45.3414 55.5,44.5C 56.1667,44.5 56.8333,44.5 57.5,44.5C 58.8484,45.1859 60.015,46.1859 61,47.5C 62.4139,46.5868 63.9139,46.5868 65.5,47.5C 59.029,51.2491 53.1957,55.9157 48,61.5C 43.6527,66.1935 40.3194,71.5268 38,77.5C 36.2458,75.75 34.0792,75.0833 31.5,75.5C 29.1202,74.7466 27.1202,73.4132 25.5,71.5C 25.2978,69.0108 25.7978,66.6775 27,64.5C 29.4121,61.0819 31.9121,57.7486 34.5,54.5C 34.8333,53.8333 35.1667,53.1667 35.5,52.5C 39.9703,49.7593 44.3036,46.7593 48.5,43.5 Z"/></g>
<g><path style="opacity:1" fill="#d0cdc9" d="M 91.5,37.5 C 93.0898,37.6282 94.4231,38.2949 95.5,39.5C 97.0382,42.1479 98.3715,44.8146 99.5,47.5C 99.5,53.1667 99.5,58.8333 99.5,64.5C 99.1667,64.5 98.8333,64.5 98.5,64.5C 98.063,61.775 96.7296,59.775 94.5,58.5C 97.4529,55.4941 97.1195,52.9941 93.5,51C 87.3368,51.2411 81.0034,51.0744 74.5,50.5C 73.9213,47.6689 72.588,45.3356 70.5,43.5C 70.3896,40.9412 71.0562,38.6079 72.5,36.5C 73.5896,37.3914 73.5896,38.3914 72.5,39.5C 74.8571,40.4032 76.3571,42.0698 77,44.5C 79.0236,46.346 81.3569,47.6793 84,48.5C 90.4521,47.6086 92.9521,43.942 91.5,37.5 Z"/></g>
<g><path style="opacity:1" fill="#da7464" d="M 29.5,47.5 C 30.5,47.5 31.5,47.5 32.5,47.5C 31.8333,48.1667 31.1667,48.8333 30.5,49.5C 28.5,49.8333 26.5,50.1667 24.5,50.5C 26.0725,49.3127 27.7392,48.3127 29.5,47.5 Z"/></g>
<g><path style="opacity:1" fill="#f9eceb" d="M 32.5,47.5 C 33.675,47.281 34.675,47.6143 35.5,48.5C 33.9547,49.4519 32.288,49.7852 30.5,49.5C 31.1667,48.8333 31.8333,48.1667 32.5,47.5 Z"/></g>
<g><path style="opacity:1" fill="#d6d8b8" d="M 68.5,52.5 C 67.7659,51.2921 67.4326,49.9587 67.5,48.5C 68.5754,47.4376 69.5754,47.4376 70.5,48.5C 70.0057,50.0255 69.339,51.3588 68.5,52.5 Z"/></g>
<g><path style="opacity:1" fill="#efe6db" d="M 30.5,49.5 C 29.6935,50.7281 28.6935,51.7281 27.5,52.5C 22.5453,54.3107 17.8787,56.644 13.5,59.5C 15.9521,55.7752 19.6188,52.7752 24.5,50.5C 26.5,50.1667 28.5,49.8333 30.5,49.5 Z"/></g>
<g><path style="opacity:1" fill="#91be76" d="M 72.5,29.5 C 71.8783,30.6266 71.045,31.6266 70,32.5C 69.1925,36.9378 69.3591,40.6044 70.5,43.5C 72.588,45.3356 73.9213,47.6689 74.5,50.5C 74.4431,51.609 74.1098,52.609 73.5,53.5C 73.3882,58.593 72.5549,58.593 71,53.5C 69.6035,56.3538 68.1035,59.0205 66.5,61.5C 66.0461,59.7411 66.0461,57.7411 66.5,55.5C 67.1667,54.5 67.8333,53.5 68.5,52.5C 69.339,51.3588 70.0057,50.0255 70.5,48.5C 69.5754,47.4376 68.5754,47.4376 67.5,48.5C 67.1583,47.6618 66.4916,47.3284 65.5,47.5C 65.3893,46.8826 65.056,46.3826 64.5,46C 67.6887,45.0192 68.022,43.6859 65.5,42C 68.1448,39.9155 68.8115,37.4155 67.5,34.5C 68.1334,31.8664 69.8001,30.1998 72.5,29.5 Z"/></g>
<g><path style="opacity:1" fill="#d9955e" d="M 44.5,43.5 C 39.85,48.467 34.1833,51.8003 27.5,53.5C 27.5,53.1667 27.5,52.8333 27.5,52.5C 28.6935,51.7281 29.6935,50.7281 30.5,49.5C 32.288,49.7852 33.9547,49.4519 35.5,48.5C 34.675,47.6143 33.675,47.281 32.5,47.5C 33.7653,46.5207 35.0986,45.5207 36.5,44.5C 38.1017,45.55 38.935,44.8833 39,42.5C 40.6995,43.4061 42.5328,43.7394 44.5,43.5 Z"/></g>
<g><path style="opacity:1" fill="#ef6e52" d="M 74.5,50.5 C 81.0034,51.0744 87.3368,51.2411 93.5,51C 97.1195,52.9941 97.4529,55.4941 94.5,58.5C 91.6618,56.5818 88.6618,55.9151 85.5,56.5C 81.5954,55.5239 77.5954,54.5239 73.5,53.5C 74.1098,52.609 74.4431,51.609 74.5,50.5 Z"/></g>
<g><path style="opacity:1" fill="#9d6044" d="M 49.5,41.5 C 49.1667,42.1667 48.8333,42.8333 48.5,43.5C 44.3036,46.7593 39.9703,49.7593 35.5,52.5C 31.9829,54.424 28.3163,56.0906 24.5,57.5C 24.7376,55.5956 25.7376,54.2623 27.5,53.5C 34.1833,51.8003 39.85,48.467 44.5,43.5C 45.1667,43.5 45.5,43.1667 45.5,42.5C 46.3149,41.5707 47.1482,40.5707 48,39.5C 48.2784,40.4158 48.7784,41.0825 49.5,41.5 Z"/></g>
<g><path style="opacity:1" fill="#f1cc9e" d="M 34.5,54.5 C 31.9121,57.7486 29.4121,61.0819 27,64.5C 25.7978,66.6775 25.2978,69.0108 25.5,71.5C 24.5489,70.0813 24.2155,68.4147 24.5,66.5C 25.8056,64.1838 27.1389,61.8505 28.5,59.5C 29.8851,57.1165 31.8851,55.4499 34.5,54.5 Z"/></g>
<g><path style="opacity:1" fill="#fac586" d="M 65.5,47.5 C 66.4916,47.3284 67.1583,47.6618 67.5,48.5C 67.4326,49.9587 67.7659,51.2921 68.5,52.5C 67.8333,53.5 67.1667,54.5 66.5,55.5C 64.9261,57.1016 64.2594,59.1016 64.5,61.5C 63.7321,60.7375 63.2321,59.7375 63,58.5C 62.1482,59.5707 61.3149,60.5707 60.5,61.5C 57.2358,63.0941 54.5691,65.4275 52.5,68.5C 48.728,71.0941 45.0613,73.9274 41.5,77C 42.5,77.6667 43.5,77.6667 44.5,77C 46.6417,74.5898 48.9751,73.4231 51.5,73.5C 51.8333,74.1667 52.1667,74.8333 52.5,75.5C 48.8314,80.5096 44.4981,84.8429 39.5,88.5C 37.4734,86.3256 35.1401,85.9922 32.5,87.5C 32.5,87.1667 32.5,86.8333 32.5,86.5C 33.4916,86.6716 34.1583,86.3382 34.5,85.5C 36.9013,84.9512 39.2346,84.1178 41.5,83C 43.0978,79.8774 42.4311,79.0441 39.5,80.5C 38.5,80.5 37.5,80.5 36.5,80.5C 36.6495,79.448 36.4828,78.448 36,77.5C 34.3775,76.9011 32.8775,76.2344 31.5,75.5C 34.0792,75.0833 36.2458,75.75 38,77.5C 40.3194,71.5268 43.6527,66.1935 48,61.5C 53.1957,55.9157 59.029,51.2491 65.5,47.5 Z"/></g>
<g><path style="opacity:1" fill="#c7e3bc" d="M 73.5,53.5 C 77.5954,54.5239 81.5954,55.5239 85.5,56.5C 85.5674,57.9587 85.2341,59.2921 84.5,60.5C 83.5,60.5 82.5,60.5 81.5,60.5C 80.0221,61.4475 79.0221,62.7809 78.5,64.5C 78.5,63.5 78.5,62.5 78.5,61.5C 76.8414,58.7053 75.0081,58.372 73,60.5C 72.654,62.2182 72.154,63.8849 71.5,65.5C 72.5575,65.9059 73.8908,65.9059 75.5,65.5C 75.8417,66.3382 76.5084,66.6716 77.5,66.5C 78.4916,66.3284 79.1583,66.6618 79.5,67.5C 79.1788,69.0481 78.1788,69.7148 76.5,69.5C 74.8333,70.1667 73.1667,70.8333 71.5,71.5C 70.791,70.596 69.791,70.2627 68.5,70.5C 67.0795,67.7387 66.4129,64.7387 66.5,61.5C 68.1035,59.0205 69.6035,56.3538 71,53.5C 72.5549,58.593 73.3882,58.593 73.5,53.5 Z"/></g>
<g><path style="opacity:1" fill="#fbfbfa" d="M 28.5,59.5 C 27.1389,61.8505 25.8056,64.1838 24.5,66.5C 22.7868,67.6354 22.1201,69.302 22.5,71.5C 20.2151,71.7046 18.8818,72.3713 18.5,73.5C 18.6567,74.8734 18.49,76.2068 18,77.5C 15.3441,73.8562 13.5107,69.8562 12.5,65.5C 17.812,64.0129 22.812,61.6796 27.5,58.5C 28.1067,58.6236 28.44,58.9569 28.5,59.5 Z"/></g>
<g><path style="opacity:1" fill="#93c780" d="M 78.5,61.5 C 77.5,61.5 76.5,61.5 75.5,61.5C 75.5,62.8333 75.5,64.1667 75.5,65.5C 73.8908,65.9059 72.5575,65.9059 71.5,65.5C 72.154,63.8849 72.654,62.2182 73,60.5C 75.0081,58.372 76.8414,58.7053 78.5,61.5 Z"/></g>
<g><path style="opacity:1" fill="#8f5441" d="M 2.5,47.5 C 2.36899,48.2389 2.53566,48.9056 3,49.5C 6.5,51.6667 9.33333,54.5 11.5,58C 7.72791,58.6107 7.72791,59.6107 11.5,61C 15.902,60.1003 20.2353,58.9336 24.5,57.5C 20.058,61.0629 15.058,62.8962 9.5,63C 7.30238,59.9772 4.96904,57.1438 2.5,54.5C 1.58294,51.9952 1.58294,49.6618 2.5,47.5 Z"/></g>
<g><path style="opacity:1" fill="#9ec88d" d="M 85.5,56.5 C 88.6618,55.9151 91.6618,56.5818 94.5,58.5C 96.7296,59.775 98.063,61.775 98.5,64.5C 98.5,64.8333 98.5,65.1667 98.5,65.5C 96.5891,65.4257 95.4224,64.4257 95,62.5C 94.3162,63.7839 94.4829,64.9505 95.5,66C 93.9556,67.1871 92.2889,67.5205 90.5,67C 91.9597,66.1887 92.293,65.3554 91.5,64.5C 90.1451,65.1882 89.1451,66.1882 88.5,67.5C 87.8333,67.5 87.5,67.1667 87.5,66.5C 87.5,65.5 87.5,64.5 87.5,63.5C 83.7104,63.9923 83.0437,63.159 85.5,61C 85.2716,60.6012 84.9382,60.4346 84.5,60.5C 85.2341,59.2921 85.5674,57.9587 85.5,56.5 Z"/></g>
<g><path style="opacity:1" fill="#4c765b" d="M 66.5,55.5 C 66.0461,57.7411 66.0461,59.7411 66.5,61.5C 66.4129,64.7387 67.0795,67.7387 68.5,70.5C 69.791,70.2627 70.791,70.596 71.5,71.5C 71.5,71.8333 71.5,72.1667 71.5,72.5C 71.5,72.8333 71.5,73.1667 71.5,73.5C 69.4418,72.0669 67.1085,71.4003 64.5,71.5C 64.5,71.1667 64.5,70.8333 64.5,70.5C 64.6613,67.8103 64.6613,64.8103 64.5,61.5C 64.2594,59.1016 64.9261,57.1016 66.5,55.5 Z"/></g>
<g><path style="opacity:1" fill="#41805b" d="M 78.5,61.5 C 78.5,62.5 78.5,63.5 78.5,64.5C 77.6618,64.8417 77.3284,65.5084 77.5,66.5C 76.5084,66.6716 75.8417,66.3382 75.5,65.5C 75.5,64.1667 75.5,62.8333 75.5,61.5C 76.5,61.5 77.5,61.5 78.5,61.5 Z"/></g>
<g><path style="opacity:1" fill="#9fcb7f" d="M 81.5,60.5 C 81.3893,61.1174 81.056,61.6174 80.5,62C 82.0699,63.6783 83.7365,65.1783 85.5,66.5C 84.8333,66.5 84.5,66.8333 84.5,67.5C 82.8333,67.5 81.1667,67.5 79.5,67.5C 79.1583,66.6618 78.4916,66.3284 77.5,66.5C 77.3284,65.5084 77.6618,64.8417 78.5,64.5C 79.0221,62.7809 80.0221,61.4475 81.5,60.5 Z"/></g>
<g><path style="opacity:1" fill="#437d58" d="M 81.5,60.5 C 82.5,60.5 83.5,60.5 84.5,60.5C 84.9382,60.4346 85.2716,60.6012 85.5,61C 83.0437,63.159 83.7104,63.9923 87.5,63.5C 87.5,64.5 87.5,65.5 87.5,66.5C 86.8333,66.5 86.1667,66.5 85.5,66.5C 83.7365,65.1783 82.0699,63.6783 80.5,62C 81.056,61.6174 81.3893,61.1174 81.5,60.5 Z"/></g>
<g><path style="opacity:1" fill="#f58a7a" d="M 60.5,61.5 C 59.5,62.8333 58.5,64.1667 57.5,65.5C 57.5,65.8333 57.5,66.1667 57.5,66.5C 55.8333,67.1667 54.1667,67.8333 52.5,68.5C 54.5691,65.4275 57.2358,63.0941 60.5,61.5 Z"/></g>
<g><path style="opacity:1" fill="#5b8a60" d="M 79.5,67.5 C 81.1667,67.5 82.8333,67.5 84.5,67.5C 85.2389,67.369 85.9056,67.5357 86.5,68C 84.3104,68.9251 82.3104,70.0918 80.5,71.5C 79.1667,70.8333 77.8333,70.1667 76.5,69.5C 78.1788,69.7148 79.1788,69.0481 79.5,67.5 Z"/></g>
<g><path style="opacity:1" fill="#51885f" d="M 98.5,65.5 C 98.1667,66.1667 97.8333,66.8333 97.5,67.5C 94.4756,70.1583 91.4756,70.1583 88.5,67.5C 89.1451,66.1882 90.1451,65.1882 91.5,64.5C 92.293,65.3554 91.9597,66.1887 90.5,67C 92.2889,67.5205 93.9556,67.1871 95.5,66C 94.4829,64.9505 94.3162,63.7839 95,62.5C 95.4224,64.4257 96.5891,65.4257 98.5,65.5 Z"/></g>
<g><path style="opacity:1" fill="#dead7b" d="M 59.5,69.5 C 59.1667,69.5 58.8333,69.5 58.5,69.5C 58.3738,68.561 58.0405,67.561 57.5,66.5C 57.5,66.1667 57.5,65.8333 57.5,65.5C 59.3904,65.7035 60.8904,65.0368 62,63.5C 62.0283,65.7866 61.195,67.7866 59.5,69.5 Z"/></g>
<g><path style="opacity:1" fill="#e1dfd6" d="M 64.5,61.5 C 64.6613,64.8103 64.6613,67.8103 64.5,70.5C 62.9582,69.6993 61.2915,69.366 59.5,69.5C 61.195,67.7866 62.0283,65.7866 62,63.5C 60.8904,65.0368 59.3904,65.7035 57.5,65.5C 58.5,64.1667 59.5,62.8333 60.5,61.5C 61.3149,60.5707 62.1482,59.5707 63,58.5C 63.2321,59.7375 63.7321,60.7375 64.5,61.5 Z"/></g>
<g><path style="opacity:1" fill="#f5e8d0" d="M 57.5,66.5 C 58.0405,67.561 58.3738,68.561 58.5,69.5C 58.1667,70.5 57.5,71.1667 56.5,71.5C 56.2648,70.9033 55.7648,70.5699 55,70.5C 53.8261,71.5442 52.6594,72.5442 51.5,73.5C 48.9751,73.4231 46.6417,74.5898 44.5,77C 43.5,77.6667 42.5,77.6667 41.5,77C 45.0613,73.9274 48.728,71.0941 52.5,68.5C 54.1667,67.8333 55.8333,67.1667 57.5,66.5 Z"/></g>
<g><path style="opacity:1" fill="#ee6549" d="M 58.5,69.5 C 58.8333,69.5 59.1667,69.5 59.5,69.5C 61.2915,69.366 62.9582,69.6993 64.5,70.5C 64.5,70.8333 64.5,71.1667 64.5,71.5C 63.5207,72.7653 62.5207,74.0986 61.5,75.5C 59.604,76.4656 57.604,76.7989 55.5,76.5C 55.5,75.5 55.5,74.5 55.5,73.5C 55.8333,72.8333 56.1667,72.1667 56.5,71.5C 57.5,71.1667 58.1667,70.5 58.5,69.5 Z"/></g>
<g><path style="opacity:1" fill="#b1cd82" d="M 76.5,69.5 C 77.8333,70.1667 79.1667,70.8333 80.5,71.5C 80.5,72.1667 80.5,72.8333 80.5,73.5C 79.609,74.1098 78.609,74.4431 77.5,74.5C 75.7028,73.2702 73.7028,72.6036 71.5,72.5C 71.5,72.1667 71.5,71.8333 71.5,71.5C 73.1667,70.8333 74.8333,70.1667 76.5,69.5 Z"/></g>
<g><path style="opacity:1" fill="#b5d691" d="M 56.5,71.5 C 56.1667,72.1667 55.8333,72.8333 55.5,73.5C 54.5,74.1667 53.5,74.8333 52.5,75.5C 52.1667,74.8333 51.8333,74.1667 51.5,73.5C 52.6594,72.5442 53.8261,71.5442 55,70.5C 55.7648,70.5699 56.2648,70.9033 56.5,71.5 Z"/></g>
<g><path style="opacity:1" fill="#c2debe" d="M 84.5,67.5 C 84.5,66.8333 84.8333,66.5 85.5,66.5C 86.1667,66.5 86.8333,66.5 87.5,66.5C 87.5,67.1667 87.8333,67.5 88.5,67.5C 90.44,72.2422 88.7733,74.5755 83.5,74.5C 82.391,74.4431 81.391,74.1098 80.5,73.5C 80.5,72.8333 80.5,72.1667 80.5,71.5C 82.3104,70.0918 84.3104,68.9251 86.5,68C 85.9056,67.5357 85.2389,67.369 84.5,67.5 Z"/></g>
<g><path style="opacity:1" fill="#ef6f4f" d="M 71.5,72.5 C 73.7028,72.6036 75.7028,73.2702 77.5,74.5C 78.2341,75.7079 78.5674,77.0413 78.5,78.5C 78.5,79.1667 78.1667,79.5 77.5,79.5C 75.8333,79.5 74.1667,79.5 72.5,79.5C 72.1667,77.5 71.8333,75.5 71.5,73.5C 71.5,73.1667 71.5,72.8333 71.5,72.5 Z"/></g>
<g><path style="opacity:1" fill="#467a59" d="M 80.5,73.5 C 81.391,74.1098 82.391,74.4431 83.5,74.5C 81.8577,75.803 80.1911,77.1363 78.5,78.5C 78.5674,77.0413 78.2341,75.7079 77.5,74.5C 78.609,74.4431 79.609,74.1098 80.5,73.5 Z"/></g>
<g><path style="opacity:1" fill="#94bf78" d="M 88.5,67.5 C 91.4756,70.1583 94.4756,70.1583 97.5,67.5C 97.3385,69.8244 96.1718,71.4911 94,72.5C 93.5034,74.8098 93.3367,77.1432 93.5,79.5C 88.6856,81.2976 83.6856,82.9643 78.5,84.5C 78.7678,82.901 78.4345,81.5676 77.5,80.5C 77.5,80.1667 77.5,79.8333 77.5,79.5C 78.1667,79.5 78.5,79.1667 78.5,78.5C 80.1911,77.1363 81.8577,75.803 83.5,74.5C 88.7733,74.5755 90.44,72.2422 88.5,67.5 Z"/></g>
<g><path style="opacity:1" fill="#c05b46" d="M 64.5,71.5 C 67.1085,71.4003 69.4418,72.0669 71.5,73.5C 71.8333,75.5 72.1667,77.5 72.5,79.5C 74.1667,79.5 75.8333,79.5 77.5,79.5C 77.5,79.8333 77.5,80.1667 77.5,80.5C 75.5648,81.1495 73.5648,81.4828 71.5,81.5C 71.1667,81.5 70.8333,81.5 70.5,81.5C 71.8641,77.5612 70.5308,74.8945 66.5,73.5C 63.0131,74.4691 61.6798,76.8024 62.5,80.5C 61.596,79.791 61.2627,78.791 61.5,77.5C 59.5,77.5 57.5,77.5 55.5,77.5C 55.5,77.1667 55.5,76.8333 55.5,76.5C 57.604,76.7989 59.604,76.4656 61.5,75.5C 62.5207,74.0986 63.5207,72.7653 64.5,71.5 Z"/></g>
<g><path style="opacity:1" fill="#f47264" d="M 24.5,66.5 C 24.2155,68.4147 24.5489,70.0813 25.5,71.5C 27.1202,73.4132 29.1202,74.7466 31.5,75.5C 32.8775,76.2344 34.3775,76.9011 36,77.5C 36.4828,78.448 36.6495,79.448 36.5,80.5C 37.5,80.5 38.5,80.5 39.5,80.5C 39.1344,81.6946 38.301,82.3613 37,82.5C 34.405,80.8542 31.5716,80.1875 28.5,80.5C 25.6442,77.9945 23.6442,74.9945 22.5,71.5C 22.1201,69.302 22.7868,67.6354 24.5,66.5 Z"/></g>
<g><path style="opacity:1" fill="#ee684b" d="M 70.5,81.5 C 69.5,81.8333 68.8333,82.5 68.5,83.5C 67.1667,83.5 65.8333,83.5 64.5,83.5C 64.1583,82.6618 63.4916,82.3284 62.5,82.5C 62.5,81.8333 62.5,81.1667 62.5,80.5C 61.6798,76.8024 63.0131,74.4691 66.5,73.5C 70.5308,74.8945 71.8641,77.5612 70.5,81.5 Z"/></g>
<g><path style="opacity:1" fill="#aed37c" d="M 55.5,77.5 C 57.5,77.5 59.5,77.5 61.5,77.5C 61.2627,78.791 61.596,79.791 62.5,80.5C 62.5,81.1667 62.5,81.8333 62.5,82.5C 60.9557,82.2969 59.6223,81.6302 58.5,80.5C 54.5423,83.6863 54.7089,86.6863 59,89.5C 60.221,88.7282 61.221,87.7282 62,86.5C 62.3333,86.8333 62.6667,87.1667 63,87.5C 63.7914,86.255 64.2914,84.9217 64.5,83.5C 65.8333,83.5 67.1667,83.5 68.5,83.5C 68.5,84.1667 68.8333,84.5 69.5,84.5C 67.3845,94.5528 61.7178,97.0528 52.5,92C 49.6792,89.8587 48.3459,87.0254 48.5,83.5C 49.5993,80.0679 51.9326,78.0679 55.5,77.5 Z"/></g>
<g><path style="opacity:1" fill="#d2e2a8" d="M 22.5,71.5 C 23.6442,74.9945 25.6442,77.9945 28.5,80.5C 29.5521,82.256 31.2188,82.9227 33.5,82.5C 33.2627,83.791 33.596,84.791 34.5,85.5C 34.1583,86.3382 33.4916,86.6716 32.5,86.5C 30.8333,86.5 29.1667,86.5 27.5,86.5C 27.5,85.5 27.5,84.5 27.5,83.5C 26.5,83.5 25.5,83.5 24.5,83.5C 24.6162,80.0897 22.9496,78.7564 19.5,79.5C 19.4208,78.0695 19.7542,76.7362 20.5,75.5C 20.1445,74.4777 19.4778,73.811 18.5,73.5C 18.8818,72.3713 20.2151,71.7046 22.5,71.5 Z"/></g>
<g><path style="opacity:1" fill="#eeeeed" d="M 55.5,73.5 C 55.5,74.5 55.5,75.5 55.5,76.5C 55.5,76.8333 55.5,77.1667 55.5,77.5C 51.9326,78.0679 49.5993,80.0679 48.5,83.5C 46.7805,87.5962 47.7805,91.0962 51.5,94C 44.0699,93.7238 37.0699,91.7238 30.5,88C 31.0944,87.5357 31.7611,87.369 32.5,87.5C 35.1401,85.9922 37.4734,86.3256 39.5,88.5C 44.4981,84.8429 48.8314,80.5096 52.5,75.5C 53.5,74.8333 54.5,74.1667 55.5,73.5 Z"/></g>
<g><path style="opacity:1" fill="#d3d3d3" d="M 35.5,52.5 C 35.1667,53.1667 34.8333,53.8333 34.5,54.5C 31.8851,55.4499 29.8851,57.1165 28.5,59.5C 28.44,58.9569 28.1067,58.6236 27.5,58.5C 22.812,61.6796 17.812,64.0129 12.5,65.5C 13.5107,69.8562 15.3441,73.8562 18,77.5C 18.49,76.2068 18.6567,74.8734 18.5,73.5C 19.4778,73.811 20.1445,74.4777 20.5,75.5C 19.7542,76.7362 19.4208,78.0695 19.5,79.5C 22.9496,78.7564 24.6162,80.0897 24.5,83.5C 25.5,83.5 26.5,83.5 27.5,83.5C 27.5,84.5 27.5,85.5 27.5,86.5C 29.1667,86.5 30.8333,86.5 32.5,86.5C 32.5,86.8333 32.5,87.1667 32.5,87.5C 31.7611,87.369 31.0944,87.5357 30.5,88C 37.0699,91.7238 44.0699,93.7238 51.5,94C 47.7805,91.0962 46.7805,87.5962 48.5,83.5C 48.3459,87.0254 49.6792,89.8587 52.5,92C 61.7178,97.0528 67.3845,94.5528 69.5,84.5C 70.391,85.1098 71.391,85.4431 72.5,85.5C 73.5,85.5 74.5,85.5 75.5,85.5C 76.9473,86.8852 77.9473,86.5518 78.5,84.5C 83.6856,82.9643 88.6856,81.2976 93.5,79.5C 87.8314,82.974 82.4981,87.1406 77.5,92C 69.4567,96.6191 60.79,98.7858 51.5,98.5C 30.2416,97.2295 16.2416,86.5628 9.5,66.5C 6.14577,63.9795 3.31243,60.9795 1,57.5C 0.274843,55.8425 0.774843,54.8425 2.5,54.5C 4.96904,57.1438 7.30238,59.9772 9.5,63C 15.058,62.8962 20.058,61.0629 24.5,57.5C 28.3163,56.0906 31.9829,54.424 35.5,52.5 Z"/></g>
<g><path style="opacity:1" fill="#3c6f56" d="M 77.5,80.5 C 78.4345,81.5676 78.7678,82.901 78.5,84.5C 77.9473,86.5518 76.9473,86.8852 75.5,85.5C 76.5375,84.0697 77.2041,82.403 77.5,80.5 Z"/></g>
<g><path style="opacity:1" fill="#7ab174" d="M 77.5,80.5 C 77.2041,82.403 76.5375,84.0697 75.5,85.5C 74.5,85.5 73.5,85.5 72.5,85.5C 71.7659,84.2921 71.4326,82.9587 71.5,81.5C 73.5648,81.4828 75.5648,81.1495 77.5,80.5 Z"/></g>
<g><path style="opacity:1" fill="#4a705c" d="M 70.5,81.5 C 70.8333,81.5 71.1667,81.5 71.5,81.5C 71.4326,82.9587 71.7659,84.2921 72.5,85.5C 71.391,85.4431 70.391,85.1098 69.5,84.5C 68.8333,84.5 68.5,84.1667 68.5,83.5C 68.8333,82.5 69.5,81.8333 70.5,81.5 Z"/></g>
<g><path style="opacity:1" fill="#e7ebc1" d="M 62.5,82.5 C 63.4916,82.3284 64.1583,82.6618 64.5,83.5C 64.2914,84.9217 63.7914,86.255 63,87.5C 62.6667,87.1667 62.3333,86.8333 62,86.5C 61.221,87.7282 60.221,88.7282 59,89.5C 54.7089,86.6863 54.5423,83.6863 58.5,80.5C 59.6223,81.6302 60.9557,82.2969 62.5,82.5 Z"/></g>
<g><path style="opacity:1" fill="#f8ecdb" d="M 34.5,85.5 C 33.596,84.791 33.2627,83.791 33.5,82.5C 31.2188,82.9227 29.5521,82.256 28.5,80.5C 31.5716,80.1875 34.405,80.8542 37,82.5C 38.301,82.3613 39.1344,81.6946 39.5,80.5C 42.4311,79.0441 43.0978,79.8774 41.5,83C 39.2346,84.1178 36.9013,84.9512 34.5,85.5 Z"/></g>
</svg>
