<?xml version="1.0" encoding="UTF-8"?>
<!DOCTYPE svg PUBLIC "-//W3C//DTD SVG 1.1//EN" "http://www.w3.org/Graphics/SVG/1.1/DTD/svg11.dtd">
<svg xmlns="http://www.w3.org/2000/svg" version="1.1" width="100px" height="100px" style="shape-rendering:geometricPrecision; text-rendering:geometricPrecision; image-rendering:optimizeQuality; fill-rule:evenodd; clip-rule:evenodd" xmlns:xlink="http://www.w3.org/1999/xlink">
<g><path style="opacity:1" fill="#fefdfd" d="M -0.5,-0.5 C 32.8333,-0.5 66.1667,-0.5 99.5,-0.5C 99.5,32.8333 99.5,66.1667 99.5,99.5C 66.1667,99.5 32.8333,99.5 -0.5,99.5C -0.5,66.1667 -0.5,32.8333 -0.5,-0.5 Z"/></g>
<g><path style="opacity:1" fill="#f3cd93" d="M 55.5,23.5 C 54.6986,29.5247 54.3653,35.5247 54.5,41.5C 50.8333,40.1667 47.1667,40.1667 43.5,41.5C 43.6061,38.9214 42.9395,36.588 41.5,34.5C 41.7373,33.209 41.404,32.209 40.5,31.5C 40.1924,29.076 40.5258,26.7427 41.5,24.5C 45.1566,22.67 48.9899,21.3366 53,20.5C 54.7491,20.7483 55.5824,21.7483 55.5,23.5 Z"/></g>
<g><path style="opacity:1" fill="#f9bb69" d="M 74.5,31.5 C 71.7967,35.9175 69.4634,40.5842 67.5,45.5C 64.5448,46.1587 61.5448,46.4921 58.5,46.5C 59.1667,44.8333 59.8333,43.1667 60.5,41.5C 61.304,38.4214 62.304,35.4214 63.5,32.5C 65.4234,27.9016 67.2567,23.2349 69,18.5C 73.8279,14.0003 76.9946,15.0003 78.5,21.5C 77.733,25.1498 76.3997,28.4831 74.5,31.5 Z"/></g>
<g><path style="opacity:1" fill="#7a985b" d="M 36.5,30.5 C 35.8333,30.5 35.5,30.8333 35.5,31.5C 34.8333,31.5 34.5,31.1667 34.5,30.5C 35.5477,28.0673 36.2144,28.0673 36.5,30.5 Z"/></g>
<g><path style="opacity:1" fill="#888196" d="M 35.5,31.5 C 35.5,30.8333 35.8333,30.5 36.5,30.5C 37.7079,31.2341 39.0413,31.5674 40.5,31.5C 41.404,32.209 41.7373,33.209 41.5,34.5C 40.8333,34.1667 40.1667,33.8333 39.5,33.5C 38.3285,32.6554 36.9952,31.9887 35.5,31.5 Z"/></g>
<g><path style="opacity:1" fill="#6265b7" d="M 57.5,31.5 C 59.4352,32.1495 61.4352,32.4828 63.5,32.5C 62.304,35.4214 61.304,38.4214 60.5,41.5C 58.5902,38.5475 57.5902,35.2142 57.5,31.5 Z"/></g>
<g><path style="opacity:1" fill="#aa5758" d="M 34.5,30.5 C 34.5,31.1667 34.8333,31.5 35.5,31.5C 36.9952,31.9887 38.3285,32.6554 39.5,33.5C 37.323,33.5861 35.323,34.2528 33.5,35.5C 32.1502,34.0499 30.4835,33.3832 28.5,33.5C 30.6391,32.8419 32.6391,31.8419 34.5,30.5 Z"/></g>
<g><path style="opacity:1" fill="#f46f65" d="M 28.5,33.5 C 30.4835,33.3832 32.1502,34.0499 33.5,35.5C 35.323,34.2528 37.323,33.5861 39.5,33.5C 40.1667,33.8333 40.8333,34.1667 41.5,34.5C 42.9395,36.588 43.6061,38.9214 43.5,41.5C 41.4131,42.5846 40.0798,44.2512 39.5,46.5C 35.076,46.348 30.7426,45.6813 26.5,44.5C 26.5,41.1667 26.5,37.8333 26.5,34.5C 27.1667,34.1667 27.8333,33.8333 28.5,33.5 Z"/></g>
<g><path style="opacity:1" fill="#de8f68" d="M 55.5,23.5 C 56.2906,26.115 56.9573,28.7816 57.5,31.5C 57.5902,35.2142 58.5902,38.5475 60.5,41.5C 59.8333,43.1667 59.1667,44.8333 58.5,46.5C 57.1667,46.5 55.8333,46.5 54.5,46.5C 55.8333,44.8333 55.8333,43.1667 54.5,41.5C 54.3653,35.5247 54.6986,29.5247 55.5,23.5 Z"/></g>
<g><path style="opacity:1" fill="#5f63b4" d="M 74.5,34.5 C 75.5,35.8333 76.5,37.1667 77.5,38.5C 77.6085,40.5138 76.9418,42.1805 75.5,43.5C 73.7839,43.6287 72.1172,43.962 70.5,44.5C 71.3208,40.8733 72.6541,37.54 74.5,34.5 Z"/></g>
<g><path style="opacity:1" fill="#6d7fc7" d="M 26.5,34.5 C 26.5,37.8333 26.5,41.1667 26.5,44.5C 25.1667,43.8333 23.8333,43.1667 22.5,42.5C 21.7659,41.2921 21.4326,39.9587 21.5,38.5C 22.5794,36.457 24.246,35.1237 26.5,34.5 Z"/></g>
<g><path style="opacity:1" fill="#fcbab6" d="M 35.5,37.5 C 36.2389,37.369 36.9056,37.5357 37.5,38C 36.6634,39.0113 36.33,40.1779 36.5,41.5C 35.325,41.719 34.325,41.3857 33.5,40.5C 34.1925,39.4822 34.8592,38.4822 35.5,37.5 Z"/></g>
<g><path style="opacity:1" fill="#fac16a" d="M 54.5,41.5 C 55.8333,43.1667 55.8333,44.8333 54.5,46.5C 49.5,46.5 44.5,46.5 39.5,46.5C 40.0798,44.2512 41.4131,42.5846 43.5,41.5C 47.1667,40.1667 50.8333,40.1667 54.5,41.5 Z"/></g>
<g><path style="opacity:1" fill="#e28060" d="M 74.5,31.5 C 74.5,32.5 74.5,33.5 74.5,34.5C 72.6541,37.54 71.3208,40.8733 70.5,44.5C 69.609,45.1098 68.609,45.4431 67.5,45.5C 69.4634,40.5842 71.7967,35.9175 74.5,31.5 Z"/></g>
<g><path style="opacity:1" fill="#72d5e9" d="M 22.5,42.5 C 23.8333,43.1667 25.1667,43.8333 26.5,44.5C 30.7426,45.6813 35.076,46.348 39.5,46.5C 44.5,46.5 49.5,46.5 54.5,46.5C 55.8333,46.5 57.1667,46.5 58.5,46.5C 61.5448,46.4921 64.5448,46.1587 67.5,45.5C 68.609,45.4431 69.609,45.1098 70.5,44.5C 72.1172,43.962 73.7839,43.6287 75.5,43.5C 76.7563,45.7257 76.7563,48.059 75.5,50.5C 72.198,51.2937 68.8647,51.9604 65.5,52.5C 55.1667,52.5 44.8333,52.5 34.5,52.5C 30.6648,52.5835 26.9981,51.9168 23.5,50.5C 21.4077,47.9658 21.0744,45.2992 22.5,42.5 Z"/></g>
<g><path style="opacity:1" fill="#8293a1" d="M 77.5,38.5 C 78.6433,41.9758 78.8099,45.6425 78,49.5C 76.883,50.9494 76.2163,52.6161 76,54.5C 75.51,53.2068 75.3433,51.8734 75.5,50.5C 76.7563,48.059 76.7563,45.7257 75.5,43.5C 76.9418,42.1805 77.6085,40.5138 77.5,38.5 Z"/></g>
<g><path style="opacity:1" fill="#8091a1" d="M 21.5,38.5 C 21.4326,39.9587 21.7659,41.2921 22.5,42.5C 21.0744,45.2992 21.4077,47.9658 23.5,50.5C 23.9958,54.6516 24.9958,58.6516 26.5,62.5C 26.1667,62.5 25.8333,62.5 25.5,62.5C 23.5801,58.3539 22.0801,54.0206 21,49.5C 20.1901,45.6425 20.3567,41.9758 21.5,38.5 Z"/></g>
<g><path style="opacity:1" fill="#95badf" d="M 34.5,52.5 C 44.8333,52.5 55.1667,52.5 65.5,52.5C 60.0672,53.9313 54.4005,54.5979 48.5,54.5C 43.5629,54.6998 38.8962,54.0331 34.5,52.5 Z"/></g>
<g><path style="opacity:1" fill="#838090" d="M 72.5,64.5 C 72.8647,61.3751 73.698,58.3751 75,55.5C 75.4711,58.9131 74.6378,61.9131 72.5,64.5 Z"/></g>
<g><path style="opacity:1" fill="#727082" d="M 72.5,64.5 C 72.573,66.0269 71.9063,67.0269 70.5,67.5C 70.427,65.9731 71.0937,64.9731 72.5,64.5 Z"/></g>
<g><path style="opacity:1" fill="#a795cb" d="M 25.5,62.5 C 25.8333,62.5 26.1667,62.5 26.5,62.5C 33.4368,73.7858 43.4368,77.6191 56.5,74C 61.5738,72.6287 66.2405,70.462 70.5,67.5C 69.7974,69.7157 68.4641,71.549 66.5,73C 70.2192,73.3884 73.8859,74.0551 77.5,75C 75.8333,76 74.1667,77 72.5,78C 58.1909,79.4078 43.8576,79.7412 29.5,79C 26.8232,78.7506 24.4899,77.7506 22.5,76C 25.2979,74.4015 28.2979,73.2349 31.5,72.5C 28.471,69.774 26.471,66.4406 25.5,62.5 Z"/></g>
</svg>
